<svg xmlns="http://www.w3.org/2000/svg" viewBox="0 0 1071.3 256"><defs><style>.cls-1,.cls-2,.cls-3{fill:none;stroke-linecap:round;stroke-width:6px;}.cls-1{stroke:#f2f9fb;}.cls-2,.cls-3{stroke:#fff;}.cls-3{stroke-linejoin:round;}.cls-4{font-size:164.52px;font-family:SFUIDisplay-Medium, SF UI Display;}.cls-4,.cls-7{fill:#fff;}.cls-5{letter-spacing:0em;}.cls-6{letter-spacing:0em;}.cls-7{font-size:66px;font-family:SFUIDisplay-Regular, SF UI Display;}.cls-8{letter-spacing:-0.01em;}</style></defs><title>1Монтажная область 1white</title><g id="Слой_1_копия_" data-name="Слой 1 (копия)"><path class="cls-1" d="M205.53,108.62a106.32,106.32,0,0,1-8.74,65.12M133.25,26.67a106.17,106.17,0,0,1,69,68.78m-147-63.24a106.21,106.21,0,0,1,60.07-9.53m15,1.05a106.35,106.35,0,0,1,42.17.26M55.21,173.74A106.13,106.13,0,0,1,108.78,30.37M73.53,81.11A188.88,188.88,0,0,1,54.88,32.7m71.8,109.1a191.19,191.19,0,0,1-21.18-18.3,191.06,191.06,0,0,1-12.89-14.24M196.3,174.12a188.61,188.61,0,0,1-63.36-27.86M94,95.05q5.42-6.47,11.5-12.56a189.17,189.17,0,0,1,69.16-44.16M54.87,173.3a188.62,188.62,0,0,1,18.27-47.73m35,27.61A188.52,188.52,0,0,1,55.7,174.12m134.7-119a189.41,189.41,0,0,1-43.9,68.43,190.42,190.42,0,0,1-20.77,18M200,116.77a106.11,106.11,0,0,1-144.78,57M202.41,46.52A106.48,106.48,0,0,1,205,99.87M55.6,31.85a189.1,189.1,0,0,1,90.91,50.64,189.09,189.09,0,0,1,50.62,90.81m-.38.48A106,106,0,0,1,55.22,32.25"/><path class="cls-2" d="M213.6,54.69A100,100,0,1,1,162.68,9.94m33.78,164,27.42,27.42m-194-194L55,32.5M126,223v14"/><path class="cls-2" d="M79,253v-2a14,14,0,0,1,14-14h66a14,14,0,0,1,14,14v2Z"/><path class="cls-2" d="M177.89,42.57,192.12,56.8l14.24-14.23a20.13,20.13,0,1,0-28.47,0Zm17.29-14.23a3.06,3.06,0,1,1-3.05-3.06,3.06,3.06,0,0,1,3.05,3.06Z"/><path class="cls-3" d="M112.1,44.9l9.9,9.9,9.9-9.9a14,14,0,1,0-19.8,0ZM123,35a1,1,0,1,1-1-1A1,1,0,0,1,123,35ZM112.1,164.9l9.9,9.9,9.9-9.9a14,14,0,1,0-19.8,0ZM123,155a1,1,0,1,1-1-1A1,1,0,0,1,123,155Zm59.1-40.1,9.9,9.9,9.9-9.9a14,14,0,1,0-19.8,0ZM193,105a1,1,0,1,1-1-1A1,1,0,0,1,193,105ZM61.67,114.1l13.71,13.7,13.69-13.7a19.37,19.37,0,1,0-27.4,0Zm16.82-13.7a3.12,3.12,0,1,1-3.11-3.12,3.11,3.11,0,0,1,3.11,3.12Z"/><path class="cls-2" d="M210.6,188.1A120,120,0,0,1,40.9,18.4"/><text class="cls-4" transform="translate(249.59 145.13)">O<tspan class="cls-5" x="121.54" y="0">r</tspan><tspan class="cls-6" x="176.41" y="0">angeSim</tspan></text><text class="cls-7" transform="translate(265.96 229.62)">ин<tspan class="cls-8" x="74.48" y="0">т</tspan><tspan x="104.51" y="0">ерн</tspan><tspan class="cls-8" x="215.21" y="0">е</tspan><tspan x="250.14" y="0">т и связь в Европе</tspan></text></g></svg>