<svg id="Слой_1" data-name="Слой 1" xmlns="http://www.w3.org/2000/svg" viewBox="0 0 1071.3 256"><defs><style>.cls-1,.cls-2,.cls-3,.cls-4{fill:none;stroke-linecap:round;stroke-width:6px;}.cls-1{stroke:#f2f9fb;}.cls-2,.cls-4{stroke:#182359;}.cls-3{stroke:#ff8f00;}.cls-4{stroke-linejoin:round;}.cls-5{fill:#f98200;}.cls-6{fill:#3f3a6c;}</style></defs><title>1Монтажная область 16</title><path class="cls-1" d="M205.53,108.62a106.32,106.32,0,0,1-8.74,65.12M133.25,26.67a106.17,106.17,0,0,1,69,68.78m-147-63.24a106.21,106.21,0,0,1,60.07-9.53m15,1.05a106.35,106.35,0,0,1,42.17.26M55.21,173.74A106.13,106.13,0,0,1,108.78,30.37M73.53,81.11A188.88,188.88,0,0,1,54.88,32.7m71.8,109.1a191.19,191.19,0,0,1-21.18-18.3,191.06,191.06,0,0,1-12.89-14.24M196.3,174.12a188.61,188.61,0,0,1-63.36-27.86M94,95.05q5.42-6.47,11.5-12.56a189.17,189.17,0,0,1,69.16-44.16M54.87,173.3a188.62,188.62,0,0,1,18.27-47.73m35,27.61A188.52,188.52,0,0,1,55.7,174.12m134.7-119a189.41,189.41,0,0,1-43.9,68.43,190.42,190.42,0,0,1-20.77,18M200,116.77a106.11,106.11,0,0,1-144.78,57M202.41,46.52A106.48,106.48,0,0,1,205,99.87M55.6,31.85a189.1,189.1,0,0,1,90.91,50.64,189.09,189.09,0,0,1,50.62,90.81m-.38.48A106,106,0,0,1,55.22,32.25"/><path class="cls-2" d="M213.6,54.69A100,100,0,1,1,162.68,9.94m33.78,164,27.42,27.42m-194-194L55,32.5M126,223v14"/><path class="cls-2" d="M79,253v-2a14,14,0,0,1,14-14h66a14,14,0,0,1,14,14v2Z"/><path class="cls-3" d="M177.89,42.57,192.12,56.8l14.24-14.23a20.13,20.13,0,1,0-28.47,0Zm17.29-14.23a3.06,3.06,0,1,1-3.05-3.06,3.06,3.06,0,0,1,3.05,3.06Z"/><path class="cls-4" d="M112.1,44.9l9.9,9.9,9.9-9.9a14,14,0,1,0-19.8,0ZM123,35a1,1,0,1,1-1-1A1,1,0,0,1,123,35ZM112.1,164.9l9.9,9.9,9.9-9.9a14,14,0,1,0-19.8,0ZM123,155a1,1,0,1,1-1-1A1,1,0,0,1,123,155Zm59.1-40.1,9.9,9.9,9.9-9.9a14,14,0,1,0-19.8,0ZM193,105a1,1,0,1,1-1-1A1,1,0,0,1,193,105ZM61.67,114.1l13.71,13.7,13.69-13.7a19.37,19.37,0,1,0-27.4,0Zm16.82-13.7a3.12,3.12,0,1,1-3.11-3.12,3.11,3.11,0,0,1,3.11,3.12Z"/><path class="cls-2" d="M210.6,188.1A120,120,0,0,1,40.9,18.4"/><path class="cls-5" d="M350,43.44q14.61,16.14,14.62,43.77T350,131q-14.62,16.08-39.69,16.07T270.64,131Q256,114.85,256,87.21t14.62-43.77q14.63-16.15,39.68-16.15T350,43.44ZM284.14,55q-9.72,11.89-9.72,32.21t9.72,32.14q9.63,11.88,26.18,11.89t26.19-11.89q9.64-11.89,9.64-32.14T336.51,55q-9.72-11.88-26.19-11.89T284.14,55Z"/><path class="cls-5" d="M380,57.89H396.6v14.7h.32a20.1,20.1,0,0,1,7.71-11.4A21.73,21.73,0,0,1,418,57a21.36,21.36,0,0,1,5.78.64V74a21.46,21.46,0,0,0-7.63-1.12q-8.6,0-13.66,5.54t-5.06,14.7v52.05H380Z"/><path class="cls-5" d="M439.17,139Q431,131.8,431,120.15q0-11.4,8.6-17.91t24.74-7.55l23.53-1.37V86.57q0-7.47-4.82-11.49t-13.49-3.93a20.6,20.6,0,0,0-12,3.37,14,14,0,0,0-5.94,9.08H435.32q.4-11.56,10.2-19.2T470,56.77q16,0,25.47,7.79T505,85.29v59.84H488.42V130.59H488a26.62,26.62,0,0,1-11.08,11.25A33.22,33.22,0,0,1,460.46,146Q447.37,146,439.17,139Zm42.18-12.37a18,18,0,0,0,6.5-14.22v-6.83L466.65,107q-18.07,1.13-18.08,12.85a10.49,10.49,0,0,0,4.5,8.92q4.5,3.36,12.05,3.37Q474.84,132.12,481.35,126.58Z"/><path class="cls-5" d="M522.56,57.89h16.62v14.7h.33q8.1-15.66,28.35-15.66,14.46,0,22.82,8.6T599,89.22v55.91H581.52V92.52q0-10-5.06-15.27t-14.62-5.38q-9.89,0-15.83,6.27t-6,16.63v50.36H522.56Z"/><path class="cls-5" d="M627.47,169.79q-10.29-6.73-11.57-17.91h17.59q1.46,5.06,7.07,8a28.93,28.93,0,0,0,13.66,3q10.37,0,16.55-5.06A16.67,16.67,0,0,0,677,144.25V129.87h-.4q-8.12,15-27.71,15-16.4,0-26.35-11.89t-10-31.81q0-20.16,10-32.21t26.75-12q19.28,0,27.87,15.34h.32V57.89H694.3v85q0,15.59-11,24.66t-29.8,9Q637.75,176.54,627.47,169.79Zm43-47.31q6.43-8,6.43-21.21T670.52,79.9a20.88,20.88,0,0,0-17.11-8.11,20.45,20.45,0,0,0-16.87,8q-6.25,8-6.26,21.45t6.26,21.29a20.59,20.59,0,0,0,16.87,7.87A21,21,0,0,0,670.52,122.48Z"/><path class="cls-5" d="M786.68,119.59q-1.84,11.73-12.29,19.2t-25.14,7.39q-19,0-30-12t-11-32.38q0-20.47,11-32.77t29.32-12.29q18,0,28.52,11.65t10.53,31.41v6.1H725.79v1q0,11.33,6.51,18.15T749.57,132a24.9,24.9,0,0,0,13.17-3.37,15.94,15.94,0,0,0,7.31-9.08ZM732.86,77.25q-6.27,6.27-7,16.31h44.26q-.32-10.2-6.26-16.39T748.44,71A21,21,0,0,0,732.86,77.25Z"/><path class="cls-6" d="M815.92,112.84a18.73,18.73,0,0,0,8.6,13.82q7.62,5.22,19.12,5.22,10.92,0,18.07-5.06T868.78,114a13.73,13.73,0,0,0-5.06-11q-5.07-4.33-16.31-7.07l-15-3.61Q801.22,84.72,801.22,61A29.69,29.69,0,0,1,813,36.69q11.73-9.4,30.37-9.4,18.32,0,29.88,9.4a30.91,30.91,0,0,1,12,24.34H867.74a18.59,18.59,0,0,0-7.48-13.66q-6.59-4.9-17.11-4.9t-17,4.82a14.92,14.92,0,0,0-6.5,12.53,12.31,12.31,0,0,0,4.9,10q4.89,3.86,16.14,6.67l12.78,3.13q17.84,4.19,25.78,11.81t7.87,20.33q0,16.21-12.05,25.78t-32.69,9.48q-19.36,0-31.33-9.24t-12.85-25Z"/><path class="cls-6" d="M903.64,42.47a9.49,9.49,0,0,1-3-7.07,9.58,9.58,0,0,1,3-7.15,10.49,10.49,0,0,1,14.46,0,9.58,9.58,0,0,1,3,7.15,9.49,9.49,0,0,1-3,7.07,10.29,10.29,0,0,1-14.46,0Zm-1.52,15.42h17.43v87.24H902.12Z"/><path class="cls-6" d="M938,57.89h16.63V72.67H955a24.28,24.28,0,0,1,9.64-11.56,27.7,27.7,0,0,1,15.19-4.18q18.87,0,24.42,16.95h.4a27.44,27.44,0,0,1,10.68-12.45,31.07,31.07,0,0,1,16.63-4.5q12.93,0,20.64,7.87t7.8,20.89v59.44H1043V89.87q0-8.59-4.42-13.26T1026,71.87a17.2,17.2,0,0,0-13.1,5.38A19.08,19.08,0,0,0,1007.75,91v54.14H990.64V88.42q0-7.55-4.5-12t-12.21-4.5a17.33,17.33,0,0,0-13.25,5.62q-5.22,5.55-5.22,14.14v53.5H938Z"/><path class="cls-6" d="M270.05,229.62V194.88h5.55V221h.25l17.89-26.07h5.54v34.74h-5.54V203.55h-.26L275.6,229.62Z"/><path class="cls-6" d="M330.74,213.89H313.08v15.73h-5.55V194.88h5.55v14.37h17.66V194.88h5.54v34.74h-5.54Z"/><path class="cls-6" d="M369.79,199.52H358.51v30.1H353v-30.1H341.69v-4.64h28.1Z"/><path class="cls-6" d="M403.18,219.69a10.83,10.83,0,0,1-4.77,7.35,16.17,16.17,0,0,1-9.63,2.9q-7.32,0-11.64-4.74t-4.28-12.82c0-5.4,1.42-9.71,4.28-13a14.43,14.43,0,0,1,11.38-4.86q7,0,11,4.57t4.06,12.47v2.19H378.66v.33a11,11,0,0,0,2.8,7.92,9.75,9.75,0,0,0,7.44,3,10.62,10.62,0,0,0,5.64-1.45,6.71,6.71,0,0,0,3.1-3.87Zm-21.53-17.5a10.69,10.69,0,0,0-3,7.13h19.11a10.28,10.28,0,0,0-2.68-7.13,8.75,8.75,0,0,0-6.67-2.7A9.14,9.14,0,0,0,381.65,202.19Z"/><path class="cls-6" d="M437.6,199.42q4.13,4.91,4.12,12.83t-4.09,12.82A13.26,13.26,0,0,1,427,229.94q-7.63,0-11.08-6h-.13v17.24h-5.61V194.88h5.32v5.64h.13a11,11,0,0,1,4.57-4.35,14.08,14.08,0,0,1,6.67-1.61A13.4,13.4,0,0,1,437.6,199.42Zm-4.42,22.08Q436,218,436,212.25a14.25,14.25,0,0,0-2.81-9.22,9.43,9.43,0,0,0-14.66,0,16.47,16.47,0,0,0,0,18.37A8.85,8.85,0,0,0,425.8,225,9,9,0,0,0,433.18,221.5Z"/><path class="cls-6" d="M471.47,213.89H453.81v15.73h-5.54V194.88h5.54v14.37h17.66V194.88H477v34.74h-5.54Z"/><path class="cls-6" d="M513.88,219.69a10.83,10.83,0,0,1-4.77,7.35,16.18,16.18,0,0,1-9.64,2.9q-7.31,0-11.63-4.74t-4.29-12.82c0-5.4,1.43-9.71,4.29-13a14.43,14.43,0,0,1,11.38-4.86q7,0,11,4.57t4.06,12.47v2.19H489.35v.33a11,11,0,0,0,2.81,7.92,9.75,9.75,0,0,0,7.44,3,10.62,10.62,0,0,0,5.64-1.45,6.71,6.71,0,0,0,3.1-3.87Zm-21.53-17.5a10.75,10.75,0,0,0-3,7.13h19.11a10.23,10.23,0,0,0-2.67-7.13,8.75,8.75,0,0,0-6.67-2.7A9.12,9.12,0,0,0,492.35,202.19Z"/><path class="cls-6" d="M545.46,199.52H534.18v30.1h-5.54v-30.1H517.36v-4.64h28.1Z"/><path class="cls-6" d="M566.67,229.62V194.88h5.54V221h.26l17.88-26.07h5.55v34.74h-5.55V203.55h-.26l-17.88,26.07Z"/><path class="cls-6" d="M643,205.51a7.6,7.6,0,0,0-2.93-4.25,9.92,9.92,0,0,0-5.93-1.71,8.93,8.93,0,0,0-7.35,3.48,14.14,14.14,0,0,0-2.84,9.22q0,5.87,2.87,9.31a9.06,9.06,0,0,0,7.38,3.39q7.13,0,8.86-5.87h5.58a12.22,12.22,0,0,1-4.77,7.83,15.5,15.5,0,0,1-9.7,3q-7.21,0-11.54-4.74t-4.38-12.95q0-8,4.35-12.86a14.72,14.72,0,0,1,11.5-4.83,15.22,15.22,0,0,1,10,3.28,12.33,12.33,0,0,1,4.51,7.67Z"/><path class="cls-6" d="M654.68,194.88h14.89a11.39,11.39,0,0,1,7.63,2.38,8.13,8.13,0,0,1,2.77,6.51,7.71,7.71,0,0,1-1.64,4.8,6.76,6.76,0,0,1-4,2.68v.26a8.39,8.39,0,0,1,5.26,2.67,7.93,7.93,0,0,1,2,5.45,9.07,9.07,0,0,1-3.19,7.31q-3.2,2.69-8.7,2.68h-15Zm5.54,4.64v9.8H668q6.56,0,6.55-5t-5.64-4.83Zm0,14.44v11h9.28q6.51,0,6.51-5.45T668.44,214Z"/><path class="cls-6" d="M707.3,217.18H701l-8.86,12.44h-6.45l9.7-13.47a11.05,11.05,0,0,1-5.77-3.61,9.49,9.49,0,0,1-2.09-6.16,10.63,10.63,0,0,1,3.54-8.44q3.51-3.06,9.51-3.06h12.25v34.74H707.3Zm0-4.64v-13h-6.7a8,8,0,0,0-5.48,1.77,6.31,6.31,0,0,0-2,5,5.65,5.65,0,0,0,2.06,4.52,8.08,8.08,0,0,0,5.45,1.77Z"/><path class="cls-6" d="M723.13,227.62a9.23,9.23,0,0,1-4.23-6.9h5.71a5.38,5.38,0,0,0,2.58,3.55,10.23,10.23,0,0,0,5.35,1.26,9.38,9.38,0,0,0,5.89-1.65,5,5,0,0,0,2.07-4.22q0-5.78-8-5.77h-5.26v-4.64h5.26q6.8,0,6.8-5.19a4.45,4.45,0,0,0-1.62-3.64,7.63,7.63,0,0,0-5-1.45,9.62,9.62,0,0,0-5.16,1.26,4.78,4.78,0,0,0-2.38,3.35h-5.48a9.5,9.5,0,0,1,4.06-6.8,15,15,0,0,1,9-2.51q5.76,0,9,2.61a8.22,8.22,0,0,1,3.12,6.76,7.62,7.62,0,0,1-1.57,4.77,7.24,7.24,0,0,1-4.23,2.74v.26q7,1.51,7,8a9.6,9.6,0,0,1-3.71,7.83q-3.7,3-9.76,3A16.17,16.17,0,0,1,723.13,227.62Z"/><path class="cls-6" d="M752.71,194.88h5.54V206h6.54q6,0,9.51,3.19a12.2,12.2,0,0,1,0,17.21q-3.54,3.18-9.51,3.19H752.71Zm5.54,15.79V225h6.54a7.61,7.61,0,0,0,5.48-2,7.65,7.65,0,0,0,0-10.41,7.56,7.56,0,0,0-5.45-1.93Z"/><path class="cls-6" d="M800,194.88h14.89a11.37,11.37,0,0,1,7.63,2.38,8.14,8.14,0,0,1,2.78,6.51,7.72,7.72,0,0,1-1.65,4.8,6.76,6.76,0,0,1-4,2.68v.26a8.36,8.36,0,0,1,5.26,2.67,7.93,7.93,0,0,1,2,5.45,9.07,9.07,0,0,1-3.19,7.31q-3.18,2.69-8.7,2.68H800Zm5.54,4.64v9.8h7.74q6.54,0,6.54-5t-5.64-4.83Zm0,14.44v11h9.28q6.51,0,6.51-5.45T813.78,214Z"/><path class="cls-6" d="M878.88,229.62H850.07v-46.5h28.81v5.22h-23v14.92h21.81v5.15H855.87v16h23Z"/><path class="cls-6" d="M886.45,194.88h14.89a11.42,11.42,0,0,1,7.64,2.38,8.16,8.16,0,0,1,2.77,6.51,7.72,7.72,0,0,1-1.65,4.8,6.74,6.74,0,0,1-4,2.68v.26a8.34,8.34,0,0,1,5.25,2.67,7.93,7.93,0,0,1,2,5.45,9.07,9.07,0,0,1-3.19,7.31q-3.18,2.69-8.7,2.68H886.45Zm5.54,4.64v9.8h7.74q6.54,0,6.54-5t-5.64-4.83ZM892,214v11h9.28q6.51,0,6.51-5.45T900.21,214Z"/><path class="cls-6" d="M947.46,199.42q4.13,4.91,4.12,12.83t-4.09,12.82a13.27,13.27,0,0,1-10.67,4.87q-7.64,0-11.09-6h-.12v17.24H920V194.88h5.32v5.64h.12a11,11,0,0,1,4.58-4.35,14,14,0,0,1,6.67-1.61A13.4,13.4,0,0,1,947.46,199.42ZM943,221.5q2.81-3.48,2.8-9.25T943,203a9.43,9.43,0,0,0-14.66,0,16.42,16.42,0,0,0,0,18.37,8.82,8.82,0,0,0,7.28,3.52A9,9,0,0,0,943,221.5Z"/><path class="cls-6" d="M960.76,225.14q-4.35-4.8-4.35-12.89t4.35-12.89c2.91-3.2,6.79-4.8,11.67-4.8s8.77,1.6,11.67,4.8,4.35,7.5,4.35,12.89-1.45,9.69-4.35,12.89-6.79,4.8-11.67,4.8S963.67,228.34,960.76,225.14ZM980,221.59q2.75-3.37,2.74-9.34T980,202.9a10.23,10.23,0,0,0-15.14,0q-2.75,3.39-2.74,9.35t2.74,9.34a10.21,10.21,0,0,0,15.14,0Z"/><path class="cls-6" d="M1017.87,199.52h-17.34v30.1H995V194.88h28.42v34.74h-5.54Z"/><path class="cls-6" d="M1060.28,219.69a10.83,10.83,0,0,1-4.77,7.35,16.17,16.17,0,0,1-9.63,2.9q-7.32,0-11.64-4.74T1030,212.38c0-5.4,1.42-9.71,4.28-13a14.43,14.43,0,0,1,11.38-4.86q7,0,11,4.57t4.06,12.47v2.19h-24.94v.33a11,11,0,0,0,2.8,7.92,9.75,9.75,0,0,0,7.44,3,10.62,10.62,0,0,0,5.64-1.45,6.71,6.71,0,0,0,3.1-3.87Zm-21.53-17.5a10.69,10.69,0,0,0-3,7.13h19.11a10.28,10.28,0,0,0-2.68-7.13,8.75,8.75,0,0,0-6.67-2.7A9.14,9.14,0,0,0,1038.75,202.19Z"/></svg>