<svg xmlns="http://www.w3.org/2000/svg" width="1920" height="1080"><path d="M38,1248L-143,1241L470,1320Z" fill="#d2835b" stroke="#d2835b" stroke-width="1.51"/><path d="M257,-257L475,-242L769,-238Z" fill="#ffe193" stroke="#ffe193" stroke-width="1.51"/><path d="M257,-257L769,-238L1482,-247Z" fill="#ffcd83" stroke="#ffcd83" stroke-width="1.51"/><path d="M769,-238L1070,-222L1482,-247Z" fill="#ffb879" stroke="#ffb879" stroke-width="1.51"/><path d="M1470,1295L1227,1284L1669,1328Z" fill="#be1a25" stroke="#be1a25" stroke-width="1.51"/><path d="M1227,1284L832,1310L1669,1328Z" fill="#c52f2a" stroke="#c52f2a" stroke-width="1.51"/><path d="M832,1310L713,1325L1669,1328Z" fill="#c4452f" stroke="#c4452f" stroke-width="1.51"/><path d="M1482,-247L1606,-200L1767,-188Z" fill="#f89969" stroke="#f89969" stroke-width="1.51"/><path d="M1828,1309L1669,1328L1901,1309Z" fill="#a90225" stroke="#a90225" stroke-width="1.51"/><path d="M1901,1309L1669,1328L2032,1321Z" fill="#a40026" stroke="#a40026" stroke-width="1.51"/><path d="M2093,340L2039,554L2094,702Z" fill="#c75232" stroke="#c75232" stroke-width="1.51"/><path d="M1989,1160L2032,1321L2100,1139Z" fill="#a30026" stroke="#a30026" stroke-width="1.51"/><path d="M1972,986L2100,1139L2104,975Z" fill="#b40724" stroke="#b40724" stroke-width="1.51"/><path d="M1767,-188L1926,-157L2111,-179Z" fill="#de8c68" stroke="#de8c68" stroke-width="1.51"/><path d="M1482,-247L1767,-188L2111,-179Z" fill="#ec936b" stroke="#ec936b" stroke-width="1.51"/><path d="M2093,340L2094,702L2128,290Z" fill="#c45a35" stroke="#c45a35" stroke-width="1.51"/><path d="M1946,836L2104,975L2133,791Z" fill="#c01d25" stroke="#c01d25" stroke-width="1.51"/><path d="M2104,975L2100,1139L2133,791Z" fill="#b40b23" stroke="#b40b23" stroke-width="1.51"/><path d="M2128,290L2094,702L2133,791Z" fill="#c14730" stroke="#c14730" stroke-width="1.51"/><path d="M2040,-91L1904,99L2139,58Z" fill="#d18056" stroke="#d18056" stroke-width="1.51"/><path d="M1927,263L2128,290L2139,58Z" fill="#cb7345" stroke="#cb7345" stroke-width="1.51"/><path d="M1904,99L1927,263L2139,58Z" fill="#d47b4a" stroke="#d47b4a" stroke-width="1.51"/><path d="M2111,-179L2040,-91L2139,58Z" fill="#ca825e" stroke="#ca825e" stroke-width="1.51"/><path d="M2128,290L2133,791L2139,58Z" fill="#c15f38" stroke="#c15f38" stroke-width="1.51"/><path d="M1946,836L1972,986L2104,975Z" fill="#c11123" stroke="#c11123" stroke-width="1.51"/><path d="M2094,702L1946,836L2133,791Z" fill="#c52928" stroke="#c52928" stroke-width="1.51"/><path d="M1972,986L1989,1160L2100,1139Z" fill="#b20425" stroke="#b20425" stroke-width="1.51"/><path d="M1927,263L2093,340L2128,290Z" fill="#cb6a3c" stroke="#cb6a3c" stroke-width="1.51"/><path d="M1895,336L2039,554L2093,340Z" fill="#cf6036" stroke="#cf6036" stroke-width="1.51"/><path d="M1926,-157L2040,-91L2111,-179Z" fill="#d38865" stroke="#d38865" stroke-width="1.51"/><path d="M2039,554L1902,642L2094,702Z" fill="#cd442e" stroke="#cd442e" stroke-width="1.51"/><path d="M1895,336L1933,568L2039,554Z" fill="#d45a33" stroke="#d45a33" stroke-width="1.51"/><path d="M1902,642L1946,836L2094,702Z" fill="#cf322a" stroke="#cf322a" stroke-width="1.51"/><path d="M1927,263L1895,336L2093,340Z" fill="#d46b3a" stroke="#d46b3a" stroke-width="1.51"/><path d="M1895,336L1810,421L1933,568Z" fill="#dd6135" stroke="#dd6135" stroke-width="1.51"/><path d="M1989,1160L1901,1309L2032,1321Z" fill="#a10026" stroke="#a10026" stroke-width="1.51"/><path d="M1933,568L1902,642L2039,554Z" fill="#d34d30" stroke="#d34d30" stroke-width="1.51"/><path d="M1923,-102L1904,99L2040,-91Z" fill="#da855a" stroke="#da855a" stroke-width="1.51"/><path d="M1926,-157L1923,-102L2040,-91Z" fill="#da8963" stroke="#da8963" stroke-width="1.51"/><path d="M134,1256L38,1248L470,1320Z" fill="#d18055" stroke="#d18055" stroke-width="1.51"/><path d="M1902,642L1812,708L1946,836Z" fill="#d93429" stroke="#d93429" stroke-width="1.51"/><path d="M1946,836L1784,991L1972,986Z" fill="#cd1222" stroke="#cd1222" stroke-width="1.51"/><path d="M1759,1189L1901,1309L1989,1160Z" fill="#b10026" stroke="#b10026" stroke-width="1.51"/><path d="M1972,986L1784,991L1989,1160Z" fill="#c20824" stroke="#c20824" stroke-width="1.51"/><path d="M1784,991L1759,1189L1989,1160Z" fill="#c20325" stroke="#c20325" stroke-width="1.51"/><path d="M1761,-66L1904,99L1923,-102Z" fill="#e4895a" stroke="#e4895a" stroke-width="1.51"/><path d="M1904,99L1827,248L1927,263Z" fill="#df7945" stroke="#df7945" stroke-width="1.51"/><path d="M1810,421L1802,550L1933,568Z" fill="#de5a32" stroke="#de5a32" stroke-width="1.51"/><path d="M1804,818L1784,991L1946,836Z" fill="#d51d24" stroke="#d51d24" stroke-width="1.51"/><path d="M1812,708L1804,818L1946,836Z" fill="#da2c27" stroke="#da2c27" stroke-width="1.51"/><path d="M1759,1189L1828,1309L1901,1309Z" fill="#ae0126" stroke="#ae0126" stroke-width="1.51"/><path d="M1761,-66L1827,116L1904,99Z" fill="#e68652" stroke="#e68652" stroke-width="1.51"/><path d="M1827,116L1827,248L1904,99Z" fill="#e27f49" stroke="#e27f49" stroke-width="1.51"/><path d="M1802,550L1902,642L1933,568Z" fill="#db4f2f" stroke="#db4f2f" stroke-width="1.51"/><path d="M1767,-188L1923,-102L1926,-157Z" fill="#e48e66" stroke="#e48e66" stroke-width="1.51"/><path d="M1827,248L1895,336L1927,263Z" fill="#dd713d" stroke="#dd713d" stroke-width="1.51"/><path d="M1767,-188L1761,-66L1923,-102Z" fill="#e88e63" stroke="#e88e63" stroke-width="1.51"/><path d="M1802,550L1812,708L1902,642Z" fill="#df482d" stroke="#df482d" stroke-width="1.51"/><path d="M1827,248L1810,421L1895,336Z" fill="#e16d38" stroke="#e16d38" stroke-width="1.51"/><path d="M1070,-222L1187,-199L1482,-247Z" fill="#ffac73" stroke="#ffac73" stroke-width="1.51"/><path d="M1632,-53L1591,108L1761,-66Z" fill="#f28e55" stroke="#f28e55" stroke-width="1.51"/><path d="M1666,1167L1759,1189L1784,991Z" fill="#c90924" stroke="#c90924" stroke-width="1.51"/><path d="M1691,977L1666,1167L1784,991Z" fill="#d00f22" stroke="#d00f22" stroke-width="1.51"/><path d="M1691,977L1784,991L1804,818Z" fill="#d81821" stroke="#d81821" stroke-width="1.51"/><path d="M1682,440L1802,550L1810,421Z" fill="#e56131" stroke="#e56131" stroke-width="1.51"/><path d="M1802,550L1620,741L1812,708Z" fill="#e4442a" stroke="#e4442a" stroke-width="1.51"/><path d="M1682,440L1810,421L1827,248Z" fill="#e56b36" stroke="#e56b36" stroke-width="1.51"/><path d="M1659,191L1682,440L1827,248Z" fill="#e97439" stroke="#e97439" stroke-width="1.51"/><path d="M1761,-66L1591,108L1827,116Z" fill="#ed8950" stroke="#ed8950" stroke-width="1.51"/><path d="M1591,108L1659,191L1827,116Z" fill="#ed8548" stroke="#ed8548" stroke-width="1.51"/><path d="M1659,191L1827,248L1827,116Z" fill="#e87e45" stroke="#e87e45" stroke-width="1.51"/><path d="M1759,1189L1669,1328L1828,1309Z" fill="#b20425" stroke="#b20425" stroke-width="1.51"/><path d="M1591,533L1620,741L1802,550Z" fill="#e9512a" stroke="#e9512a" stroke-width="1.51"/><path d="M1597,879L1691,977L1804,818Z" fill="#dd2121" stroke="#dd2121" stroke-width="1.51"/><path d="M1620,741L1804,818L1812,708Z" fill="#e33226" stroke="#e33226" stroke-width="1.51"/><path d="M1620,741L1597,879L1804,818Z" fill="#e42c23" stroke="#e42c23" stroke-width="1.51"/><path d="M1682,440L1591,533L1802,550Z" fill="#e95f2f" stroke="#e95f2f" stroke-width="1.51"/><path d="M1632,-53L1761,-66L1767,-188Z" fill="#ef905f" stroke="#ef905f" stroke-width="1.51"/><path d="M1666,1167L1669,1328L1759,1189Z" fill="#bc0724" stroke="#bc0724" stroke-width="1.51"/><path d="M1606,-200L1632,-53L1767,-188Z" fill="#f39463" stroke="#f39463" stroke-width="1.51"/><path d="M1591,533L1528,657L1620,741Z" fill="#ef4d28" stroke="#ef4d28" stroke-width="1.51"/><path d="M1666,1167L1470,1295L1669,1328Z" fill="#be0b23" stroke="#be0b23" stroke-width="1.51"/><path d="M1659,191L1488,367L1682,440Z" fill="#f07333" stroke="#f07333" stroke-width="1.51"/><path d="M1490,978L1666,1167L1691,977Z" fill="#d71320" stroke="#d71320" stroke-width="1.51"/><path d="M1597,879L1490,978L1691,977Z" fill="#e11b1d" stroke="#e11b1d" stroke-width="1.51"/><path d="M1538,-29L1591,108L1632,-53Z" fill="#f78f53" stroke="#f78f53" stroke-width="1.51"/><path d="M1441,222L1488,367L1659,191Z" fill="#f67e3a" stroke="#f67e3a" stroke-width="1.51"/><path d="M1490,978L1431,1135L1666,1167Z" fill="#d71720" stroke="#d71720" stroke-width="1.51"/><path d="M1488,367L1591,533L1682,440Z" fill="#f1682f" stroke="#f1682f" stroke-width="1.51"/><path d="M1431,1135L1470,1295L1666,1167Z" fill="#cb1423" stroke="#cb1423" stroke-width="1.51"/><path d="M1591,108L1517,111L1659,191Z" fill="#f48846" stroke="#f48846" stroke-width="1.51"/><path d="M1517,111L1441,222L1659,191Z" fill="#f68642" stroke="#f68642" stroke-width="1.51"/><path d="M1457,834L1597,879L1620,741Z" fill="#eb2f20" stroke="#eb2f20" stroke-width="1.51"/><path d="M1606,-200L1538,-29L1632,-53Z" fill="#f8945d" stroke="#f8945d" stroke-width="1.51"/><path d="M1538,-29L1517,111L1591,108Z" fill="#f88e4d" stroke="#f88e4d" stroke-width="1.51"/><path d="M1482,-247L1538,-29L1606,-200Z" fill="#fc9964" stroke="#fc9964" stroke-width="1.51"/><path d="M1528,657L1457,834L1620,741Z" fill="#f13b23" stroke="#f13b23" stroke-width="1.51"/><path d="M1280,1267L1227,1284L1470,1295Z" fill="#c72728" stroke="#c72728" stroke-width="1.51"/><path d="M1488,367L1439,562L1591,533Z" fill="#f4682e" stroke="#f4682e" stroke-width="1.51"/><path d="M1439,562L1528,657L1591,533Z" fill="#f25a2a" stroke="#f25a2a" stroke-width="1.51"/><path d="M1457,834L1490,978L1597,879Z" fill="#e9291f" stroke="#e9291f" stroke-width="1.51"/><path d="M1374,541L1439,562L1488,367Z" fill="#f76c30" stroke="#f76c30" stroke-width="1.51"/><path d="M1350,821L1457,834L1528,657Z" fill="#f33e24" stroke="#f33e24" stroke-width="1.51"/><path d="M1283,692L1350,821L1528,657Z" fill="#f74a28" stroke="#f74a28" stroke-width="1.51"/><path d="M1482,-247L1341,-156L1538,-29Z" fill="#ff9d65" stroke="#ff9d65" stroke-width="1.51"/><path d="M1341,-156L1368,-37L1538,-29Z" fill="#ff9c5f" stroke="#ff9c5f" stroke-width="1.51"/><path d="M1387,39L1517,111L1538,-29Z" fill="#fb9252" stroke="#fb9252" stroke-width="1.51"/><path d="M1368,-37L1387,39L1538,-29Z" fill="#fd9858" stroke="#fd9858" stroke-width="1.51"/><path d="M1439,562L1283,692L1528,657Z" fill="#f6582b" stroke="#f6582b" stroke-width="1.51"/><path d="M1318,396L1374,541L1488,367Z" fill="#f97433" stroke="#f97433" stroke-width="1.51"/><path d="M1387,39L1441,222L1517,111Z" fill="#fa904a" stroke="#fa904a" stroke-width="1.51"/><path d="M1350,821L1309,968L1457,834Z" fill="#f03823" stroke="#f03823" stroke-width="1.51"/><path d="M1431,1135L1280,1267L1470,1295Z" fill="#cb2326" stroke="#cb2326" stroke-width="1.51"/><path d="M1187,-199L1341,-156L1482,-247Z" fill="#ffa56d" stroke="#ffa56d" stroke-width="1.51"/><path d="M1441,222L1305,268L1488,367Z" fill="#f9823b" stroke="#f9823b" stroke-width="1.51"/><path d="M1305,268L1318,396L1488,367Z" fill="#fb7e37" stroke="#fb7e37" stroke-width="1.51"/><path d="M1457,834L1309,968L1490,978Z" fill="#eb2e20" stroke="#eb2e20" stroke-width="1.51"/><path d="M1309,968L1431,1135L1490,978Z" fill="#e22822" stroke="#e22822" stroke-width="1.51"/><path d="M1309,968L1287,1099L1431,1135Z" fill="#e12c24" stroke="#e12c24" stroke-width="1.51"/><path d="M1374,541L1283,692L1439,562Z" fill="#f8612e" stroke="#f8612e" stroke-width="1.51"/><path d="M1387,39L1305,268L1441,222Z" fill="#fc8f46" stroke="#fc8f46" stroke-width="1.51"/><path d="M1287,1099L1280,1267L1431,1135Z" fill="#d82a27" stroke="#d82a27" stroke-width="1.51"/><path d="M1210,226L1305,268L1387,39Z" fill="#ff9349" stroke="#ff9349" stroke-width="1.51"/><path d="M980,1240L832,1310L1227,1284Z" fill="#cb4c30" stroke="#cb4c30" stroke-width="1.51"/><path d="M1147,82L1210,226L1387,39Z" fill="#ff9b50" stroke="#ff9b50" stroke-width="1.51"/><path d="M1368,-37L1181,-62L1387,39Z" fill="#ff9e5c" stroke="#ff9e5c" stroke-width="1.51"/><path d="M1181,-62L1147,82L1387,39Z" fill="#ffa15a" stroke="#ffa15a" stroke-width="1.51"/><path d="M1341,-156L1181,-62L1368,-37Z" fill="#ffa363" stroke="#ffa363" stroke-width="1.51"/><path d="M1147,516L1283,692L1374,541Z" fill="#fc6931" stroke="#fc6931" stroke-width="1.51"/><path d="M1318,396L1203,413L1374,541Z" fill="#fd7735" stroke="#fd7735" stroke-width="1.51"/><path d="M1203,413L1147,516L1374,541Z" fill="#fd7735" stroke="#fd7735" stroke-width="1.51"/><path d="M1199,841L1309,968L1350,821Z" fill="#f33e25" stroke="#f33e25" stroke-width="1.51"/><path d="M1222,1013L1287,1099L1309,968Z" fill="#e83424" stroke="#e83424" stroke-width="1.51"/><path d="M1283,692L1212,739L1350,821Z" fill="#fb4c29" stroke="#fb4c29" stroke-width="1.51"/><path d="M1212,739L1199,841L1350,821Z" fill="#f94a28" stroke="#f94a28" stroke-width="1.51"/><path d="M1187,-199L1181,-62L1341,-156Z" fill="#ffa96a" stroke="#ffa96a" stroke-width="1.51"/><path d="M1173,1114L1227,1284L1280,1267Z" fill="#d2342a" stroke="#d2342a" stroke-width="1.51"/><path d="M1173,1114L1280,1267L1287,1099Z" fill="#dc3229" stroke="#dc3229" stroke-width="1.51"/><path d="M1210,226L1203,413L1305,268Z" fill="#ff8a3e" stroke="#ff8a3e" stroke-width="1.51"/><path d="M1199,841L1222,1013L1309,968Z" fill="#f03c24" stroke="#f03c24" stroke-width="1.51"/><path d="M1305,268L1203,413L1318,396Z" fill="#fe8239" stroke="#fe8239" stroke-width="1.51"/><path d="M1147,516L1212,739L1283,692Z" fill="#fd652f" stroke="#fd652f" stroke-width="1.51"/><path d="M1222,1013L1173,1114L1287,1099Z" fill="#e43928" stroke="#e43928" stroke-width="1.51"/><path d="M1055,544L1039,701L1147,516Z" fill="#fd7b36" stroke="#fd7b36" stroke-width="1.51"/><path d="M1147,82L1074,189L1210,226Z" fill="#ffa04f" stroke="#ffa04f" stroke-width="1.51"/><path d="M1039,343L1203,413L1210,226Z" fill="#ff903e" stroke="#ff903e" stroke-width="1.51"/><path d="M1147,516L1039,701L1212,739Z" fill="#fd6d31" stroke="#fd6d31" stroke-width="1.51"/><path d="M1199,841L996,944L1222,1013Z" fill="#f14b27" stroke="#f14b27" stroke-width="1.51"/><path d="M1173,1114L1018,1168L1227,1284Z" fill="#d8412c" stroke="#d8412c" stroke-width="1.51"/><path d="M1018,1168L980,1240L1227,1284Z" fill="#d2472e" stroke="#d2472e" stroke-width="1.51"/><path d="M1074,189L1039,343L1210,226Z" fill="#ff9b48" stroke="#ff9b48" stroke-width="1.51"/><path d="M996,944L1173,1114L1222,1013Z" fill="#ea4828" stroke="#ea4828" stroke-width="1.51"/><path d="M1007,845L996,944L1199,841Z" fill="#f55a2b" stroke="#f55a2b" stroke-width="1.51"/><path d="M1039,701L1199,841L1212,739Z" fill="#fc5a2c" stroke="#fc5a2c" stroke-width="1.51"/><path d="M1070,-222L1181,-62L1187,-199Z" fill="#ffb270" stroke="#ffb270" stroke-width="1.51"/><path d="M1039,701L1007,845L1199,841Z" fill="#fa5f2d" stroke="#fa5f2d" stroke-width="1.51"/><path d="M1039,343L1147,516L1203,413Z" fill="#fe883b" stroke="#fe883b" stroke-width="1.51"/><path d="M996,944L1018,1168L1173,1114Z" fill="#e54f2c" stroke="#e54f2c" stroke-width="1.51"/><path d="M984,-111L1147,82L1181,-62Z" fill="#ffaf64" stroke="#ffaf64" stroke-width="1.51"/><path d="M1070,-222L984,-111L1181,-62Z" fill="#ffb66f" stroke="#ffb66f" stroke-width="1.51"/><path d="M984,-111L1028,129L1147,82Z" fill="#ffb15f" stroke="#ffb15f" stroke-width="1.51"/><path d="M1039,343L1055,544L1147,516Z" fill="#fe893b" stroke="#fe893b" stroke-width="1.51"/><path d="M933,1009L931,1084L996,944Z" fill="#ec5d2d" stroke="#ec5d2d" stroke-width="1.51"/><path d="M996,944L931,1084L1018,1168Z" fill="#e6582e" stroke="#e6582e" stroke-width="1.51"/><path d="M769,-238L932,-171L1070,-222Z" fill="#ffc57d" stroke="#ffc57d" stroke-width="1.51"/><path d="M1028,129L1074,189L1147,82Z" fill="#ffa954" stroke="#ffa954" stroke-width="1.51"/><path d="M984,-111L889,131L1028,129Z" fill="#ffb761" stroke="#ffb761" stroke-width="1.51"/><path d="M1039,343L844,412L1055,544Z" fill="#fe953f" stroke="#fe953f" stroke-width="1.51"/><path d="M869,584L1039,701L1055,544Z" fill="#fd8138" stroke="#fd8138" stroke-width="1.51"/><path d="M932,-171L984,-111L1070,-222Z" fill="#ffbf76" stroke="#ffbf76" stroke-width="1.51"/><path d="M1028,129L889,131L1074,189Z" fill="#ffaf56" stroke="#ffaf56" stroke-width="1.51"/><path d="M889,131L846,281L1074,189Z" fill="#ffae52" stroke="#ffae52" stroke-width="1.51"/><path d="M846,281L1039,343L1074,189Z" fill="#ffa449" stroke="#ffa449" stroke-width="1.51"/><path d="M923,849L1007,845L1039,701Z" fill="#fa6930" stroke="#fa6930" stroke-width="1.51"/><path d="M844,412L869,584L1055,544Z" fill="#fd923e" stroke="#fd923e" stroke-width="1.51"/><path d="M836,-94L889,131L984,-111Z" fill="#ffbf6a" stroke="#ffbf6a" stroke-width="1.51"/><path d="M846,281L844,412L1039,343Z" fill="#fea245" stroke="#fea245" stroke-width="1.51"/><path d="M842,741L923,849L1039,701Z" fill="#fc7133" stroke="#fc7133" stroke-width="1.51"/><path d="M869,584L842,741L1039,701Z" fill="#fd7e37" stroke="#fd7e37" stroke-width="1.51"/><path d="M923,849L996,944L1007,845Z" fill="#f5642d" stroke="#f5642d" stroke-width="1.51"/><path d="M931,1084L980,1240L1018,1168Z" fill="#dd5531" stroke="#dd5531" stroke-width="1.51"/><path d="M923,849L933,1009L996,944Z" fill="#f2612c" stroke="#f2612c" stroke-width="1.51"/><path d="M931,1084L832,1310L980,1240Z" fill="#d55832" stroke="#d55832" stroke-width="1.51"/><path d="M932,-171L836,-94L984,-111Z" fill="#ffc274" stroke="#ffc274" stroke-width="1.51"/><path d="M836,-94L738,56L889,131Z" fill="#ffc067" stroke="#ffc067" stroke-width="1.51"/><path d="M738,863L751,1020L923,849Z" fill="#f56e30" stroke="#f56e30" stroke-width="1.51"/><path d="M702,1152L832,1310L931,1084Z" fill="#db6034" stroke="#db6034" stroke-width="1.51"/><path d="M751,1020L702,1152L931,1084Z" fill="#e66633" stroke="#e66633" stroke-width="1.51"/><path d="M769,-238L836,-94L932,-171Z" fill="#ffc87b" stroke="#ffc87b" stroke-width="1.51"/><path d="M751,1020L931,1084L933,1009Z" fill="#ea6230" stroke="#ea6230" stroke-width="1.51"/><path d="M923,849L751,1020L933,1009Z" fill="#f2662d" stroke="#f2662d" stroke-width="1.51"/><path d="M842,741L738,863L923,849Z" fill="#fa7333" stroke="#fa7333" stroke-width="1.51"/><path d="M475,-242L615,-200L769,-238Z" fill="#ffd889" stroke="#ffd889" stroke-width="1.51"/><path d="M773,-93L738,56L836,-94Z" fill="#ffc76f" stroke="#ffc76f" stroke-width="1.51"/><path d="M763,385L844,412L846,281Z" fill="#fea746" stroke="#fea746" stroke-width="1.51"/><path d="M733,710L842,741L869,584Z" fill="#fe843a" stroke="#fe843a" stroke-width="1.51"/><path d="M844,412L698,552L869,584Z" fill="#fe9941" stroke="#fe9941" stroke-width="1.51"/><path d="M758,237L846,281L889,131Z" fill="#ffb353" stroke="#ffb353" stroke-width="1.51"/><path d="M738,56L758,237L889,131Z" fill="#ffbc5c" stroke="#ffbc5c" stroke-width="1.51"/><path d="M769,-238L773,-93L836,-94Z" fill="#ffca79" stroke="#ffca79" stroke-width="1.51"/><path d="M763,385L698,552L844,412Z" fill="#fea244" stroke="#fea244" stroke-width="1.51"/><path d="M698,552L733,710L869,584Z" fill="#fe8f3d" stroke="#fe8f3d" stroke-width="1.51"/><path d="M702,1152L713,1325L832,1310Z" fill="#cf6137" stroke="#cf6137" stroke-width="1.51"/><path d="M733,710L738,863L842,741Z" fill="#fd7c36" stroke="#fd7c36" stroke-width="1.51"/><path d="M758,237L763,385L846,281Z" fill="#fead4c" stroke="#fead4c" stroke-width="1.51"/><path d="M698,552L627,646L733,710Z" fill="#fe923f" stroke="#fe923f" stroke-width="1.51"/><path d="M633,47L632,233L738,56Z" fill="#ffc663" stroke="#ffc663" stroke-width="1.51"/><path d="M733,710L639,866L738,863Z" fill="#fb7d37" stroke="#fb7d37" stroke-width="1.51"/><path d="M738,863L639,866L751,1020Z" fill="#f57432" stroke="#f57432" stroke-width="1.51"/><path d="M738,56L632,233L758,237Z" fill="#ffbe5b" stroke="#ffbe5b" stroke-width="1.51"/><path d="M581,413L698,552L763,385Z" fill="#fea747" stroke="#fea747" stroke-width="1.51"/><path d="M758,237L632,233L763,385Z" fill="#feb350" stroke="#feb350" stroke-width="1.51"/><path d="M632,233L581,413L763,385Z" fill="#feb14b" stroke="#feb14b" stroke-width="1.51"/><path d="M562,-21L633,47L773,-93Z" fill="#ffce71" stroke="#ffce71" stroke-width="1.51"/><path d="M615,-200L562,-21L773,-93Z" fill="#ffd17a" stroke="#ffd17a" stroke-width="1.51"/><path d="M633,47L738,56L773,-93Z" fill="#ffc86c" stroke="#ffc86c" stroke-width="1.51"/><path d="M769,-238L615,-200L773,-93Z" fill="#ffd17f" stroke="#ffd17f" stroke-width="1.51"/><path d="M702,1152L582,1256L713,1325Z" fill="#d26839" stroke="#d26839" stroke-width="1.51"/><path d="M639,866L559,963L751,1020Z" fill="#f37533" stroke="#f37533" stroke-width="1.51"/><path d="M576,1098L702,1152L751,1020Z" fill="#e66e36" stroke="#e66e36" stroke-width="1.51"/><path d="M581,413L603,541L698,552Z" fill="#fea548" stroke="#fea548" stroke-width="1.51"/><path d="M559,963L576,1098L751,1020Z" fill="#ec7436" stroke="#ec7436" stroke-width="1.51"/><path d="M627,646L639,866L733,710Z" fill="#ff853a" stroke="#ff853a" stroke-width="1.51"/><path d="M582,1256L470,1320L713,1325Z" fill="#ca6a3e" stroke="#ca6a3e" stroke-width="1.51"/><path d="M627,646L475,727L639,866Z" fill="#ff8a40" stroke="#ff8a40" stroke-width="1.51"/><path d="M603,541L627,646L698,552Z" fill="#fe9c43" stroke="#fe9c43" stroke-width="1.51"/><path d="M576,1098L582,1256L702,1152Z" fill="#de6f3b" stroke="#de6f3b" stroke-width="1.51"/><path d="M438,-94L562,-21L615,-200Z" fill="#ffd882" stroke="#ffd882" stroke-width="1.51"/><path d="M445,377L581,413L632,233Z" fill="#ffb953" stroke="#ffb953" stroke-width="1.51"/><path d="M432,248L445,377L632,233Z" fill="#ffc15c" stroke="#ffc15c" stroke-width="1.51"/><path d="M562,-21L398,43L633,47Z" fill="#ffd375" stroke="#ffd375" stroke-width="1.51"/><path d="M432,248L632,233L633,47Z" fill="#ffc763" stroke="#ffc763" stroke-width="1.51"/><path d="M398,43L432,248L633,47Z" fill="#ffd16f" stroke="#ffd16f" stroke-width="1.51"/><path d="M456,839L559,963L639,866Z" fill="#f8813c" stroke="#f8813c" stroke-width="1.51"/><path d="M475,727L456,839L639,866Z" fill="#fd8a41" stroke="#fd8a41" stroke-width="1.51"/><path d="M475,-242L438,-94L615,-200Z" fill="#ffde8b" stroke="#ffde8b" stroke-width="1.51"/><path d="M603,541L475,727L627,646Z" fill="#ff9a46" stroke="#ff9a46" stroke-width="1.51"/><path d="M272,1243L134,1256L470,1320Z" fill="#d07e50" stroke="#d07e50" stroke-width="1.51"/><path d="M581,413L439,489L603,541Z" fill="#ffad4e" stroke="#ffad4e" stroke-width="1.51"/><path d="M439,489L475,727L603,541Z" fill="#ffa44d" stroke="#ffa44d" stroke-width="1.51"/><path d="M576,1098L392,1163L582,1256Z" fill="#df7641" stroke="#df7641" stroke-width="1.51"/><path d="M559,963L412,953L576,1098Z" fill="#f07d3d" stroke="#f07d3d" stroke-width="1.51"/><path d="M445,377L439,489L581,413Z" fill="#ffb554" stroke="#ffb554" stroke-width="1.51"/><path d="M392,1163L470,1320L582,1256Z" fill="#d47444" stroke="#d47444" stroke-width="1.51"/><path d="M412,953L392,1163L576,1098Z" fill="#ea7e43" stroke="#ea7e43" stroke-width="1.51"/><path d="M456,839L412,953L559,963Z" fill="#f78440" stroke="#f78440" stroke-width="1.51"/><path d="M438,-94L398,43L562,-21Z" fill="#ffd97e" stroke="#ffd97e" stroke-width="1.51"/><path d="M306,1026L392,1163L412,953Z" fill="#ed8548" stroke="#ed8548" stroke-width="1.51"/><path d="M398,43L337,122L432,248Z" fill="#fed673" stroke="#fed673" stroke-width="1.51"/><path d="M392,1163L272,1243L470,1320Z" fill="#d57c4a" stroke="#d57c4a" stroke-width="1.51"/><path d="M439,489L336,489L475,727Z" fill="#ffad53" stroke="#ffad53" stroke-width="1.51"/><path d="M336,489L237,698L475,727Z" fill="#ffa855" stroke="#ffa855" stroke-width="1.51"/><path d="M229,808L456,839L475,727Z" fill="#ff954b" stroke="#ff954b" stroke-width="1.51"/><path d="M237,698L229,808L475,727Z" fill="#ff9c52" stroke="#ff9c52" stroke-width="1.51"/><path d="M328,-83L438,-94L475,-242Z" fill="#ffe28e" stroke="#ffe28e" stroke-width="1.51"/><path d="M257,-257L328,-83L475,-242Z" fill="#ffe898" stroke="#ffe898" stroke-width="1.51"/><path d="M334,421L439,489L445,377Z" fill="#ffba5a" stroke="#ffba5a" stroke-width="1.51"/><path d="M328,-83L398,43L438,-94Z" fill="#ffdf86" stroke="#ffdf86" stroke-width="1.51"/><path d="M432,248L334,421L445,377Z" fill="#ffc15e" stroke="#ffc15e" stroke-width="1.51"/><path d="M229,808L412,953L456,839Z" fill="#fb904a" stroke="#fb904a" stroke-width="1.51"/><path d="M234,250L334,421L432,248Z" fill="#ffc966" stroke="#ffc966" stroke-width="1.51"/><path d="M334,421L336,489L439,489Z" fill="#ffba5b" stroke="#ffba5b" stroke-width="1.51"/><path d="M306,1026L281,1110L392,1163Z" fill="#e8854d" stroke="#e8854d" stroke-width="1.51"/><path d="M337,122L234,250L432,248Z" fill="#ffd370" stroke="#ffd370" stroke-width="1.51"/><path d="M229,808L306,1026L412,953Z" fill="#f88d4b" stroke="#f88d4b" stroke-width="1.51"/><path d="M169,580L237,698L336,489Z" fill="#ffb15e" stroke="#ffb15e" stroke-width="1.51"/><path d="M328,-83L337,122L398,43Z" fill="#ffde81" stroke="#ffde81" stroke-width="1.51"/><path d="M281,1110L272,1243L392,1163Z" fill="#e0824e" stroke="#e0824e" stroke-width="1.51"/><path d="M229,808L135,1010L306,1026Z" fill="#f88f50" stroke="#f88f50" stroke-width="1.51"/><path d="M234,250L79,339L334,421Z" fill="#ffca6b" stroke="#ffca6b" stroke-width="1.51"/><path d="M334,421L169,580L336,489Z" fill="#ffba60" stroke="#ffba60" stroke-width="1.51"/><path d="M92,107L234,250L337,122Z" fill="#ffda7d" stroke="#ffda7d" stroke-width="1.51"/><path d="M328,-83L92,-25L337,122Z" fill="#ffe28a" stroke="#ffe28a" stroke-width="1.51"/><path d="M92,-25L92,107L337,122Z" fill="#ffe289" stroke="#ffe289" stroke-width="1.51"/><path d="M257,-257L92,-25L328,-83Z" fill="#ffe999" stroke="#ffe999" stroke-width="1.51"/><path d="M79,339L169,580L334,421Z" fill="#ffc168" stroke="#ffc168" stroke-width="1.51"/><path d="M116,-253L92,-25L257,-257Z" fill="#ffeea4" stroke="#ffeea4" stroke-width="1.51"/><path d="M92,107L98,189L234,250Z" fill="#ffdb80" stroke="#ffdb80" stroke-width="1.51"/><path d="M135,1010L281,1110L306,1026Z" fill="#ee8a51" stroke="#ee8a51" stroke-width="1.51"/><path d="M135,1010L107,1083L281,1110Z" fill="#ed8b55" stroke="#ed8b55" stroke-width="1.51"/><path d="M134,1256L272,1243L281,1110Z" fill="#dd8354" stroke="#dd8354" stroke-width="1.51"/><path d="M107,1083L134,1256L281,1110Z" fill="#e58857" stroke="#e58857" stroke-width="1.51"/><path d="M100,796L135,1010L229,808Z" fill="#fd9758" stroke="#fd9758" stroke-width="1.51"/><path d="M169,580L113,658L237,698Z" fill="#ffad60" stroke="#ffad60" stroke-width="1.51"/><path d="M100,796L229,808L237,698Z" fill="#ff9e5a" stroke="#ff9e5a" stroke-width="1.51"/><path d="M113,658L100,796L237,698Z" fill="#ffa55e" stroke="#ffa55e" stroke-width="1.51"/><path d="M98,189L79,339L234,250Z" fill="#ffd478" stroke="#ffd478" stroke-width="1.51"/><path d="M-164,-179L4,-190L116,-253Z" fill="#fff4b3" stroke="#fff4b3" stroke-width="1.51"/><path d="M-46,384L-52,550L79,339Z" fill="#ffca78" stroke="#ffca78" stroke-width="1.51"/><path d="M-4,1135L38,1248L107,1083Z" fill="#e68c60" stroke="#e68c60" stroke-width="1.51"/><path d="M4,-190L92,-25L116,-253Z" fill="#fff0a8" stroke="#fff0a8" stroke-width="1.51"/><path d="M107,1083L38,1248L134,1256Z" fill="#df885d" stroke="#df885d" stroke-width="1.51"/><path d="M100,796L-17,1011L135,1010Z" fill="#fa955a" stroke="#fa955a" stroke-width="1.51"/><path d="M-52,550L113,658L169,580Z" fill="#ffb66a" stroke="#ffb66a" stroke-width="1.51"/><path d="M79,339L-52,550L169,580Z" fill="#ffc26f" stroke="#ffc26f" stroke-width="1.51"/><path d="M4,-190L19,-23L92,-25Z" fill="#ffeda2" stroke="#ffeda2" stroke-width="1.51"/><path d="M-71,863L-17,1011L100,796Z" fill="#fe9b61" stroke="#fe9b61" stroke-width="1.51"/><path d="M29,723L100,796L113,658Z" fill="#ffa663" stroke="#ffa663" stroke-width="1.51"/><path d="M-17,1011L107,1083L135,1010Z" fill="#f1905c" stroke="#f1905c" stroke-width="1.51"/><path d="M19,-23L92,107L92,-25Z" fill="#ffe796" stroke="#ffe796" stroke-width="1.51"/><path d="M-44,238L79,339L98,189Z" fill="#ffd77f" stroke="#ffd77f" stroke-width="1.51"/><path d="M-52,550L29,723L113,658Z" fill="#ffb26b" stroke="#ffb26b" stroke-width="1.51"/><path d="M19,-23L-42,40L92,107Z" fill="#ffe897" stroke="#ffe897" stroke-width="1.51"/><path d="M-17,1011L-4,1135L107,1083Z" fill="#ee9060" stroke="#ee9060" stroke-width="1.51"/><path d="M92,107L-44,238L98,189Z" fill="#ffdf87" stroke="#ffdf87" stroke-width="1.51"/><path d="M29,723L-71,863L100,796Z" fill="#ffa164" stroke="#ffa164" stroke-width="1.51"/><path d="M-42,40L-44,238L92,107Z" fill="#ffe490" stroke="#ffe490" stroke-width="1.51"/><path d="M-44,238L-46,384L79,339Z" fill="#ffd37c" stroke="#ffd37c" stroke-width="1.51"/><path d="M-121,91L-44,238L-42,40Z" fill="#ffe795" stroke="#ffe795" stroke-width="1.51"/><path d="M4,-190L-164,-179L19,-23Z" fill="#fff2ae" stroke="#fff2ae" stroke-width="1.51"/><path d="M-164,-179L-167,-8L19,-23Z" fill="#fff1ab" stroke="#fff1ab" stroke-width="1.51"/><path d="M-52,550L-119,725L29,723Z" fill="#ffb16f" stroke="#ffb16f" stroke-width="1.51"/><path d="M-119,725L-71,863L29,723Z" fill="#ffa66a" stroke="#ffa66a" stroke-width="1.51"/><path d="M-4,1135L-143,1241L38,1248Z" fill="#de8c65" stroke="#de8c65" stroke-width="1.51"/><path d="M-134,572L-119,725L-52,550Z" fill="#ffb976" stroke="#ffb976" stroke-width="1.51"/><path d="M-126,418L-52,550L-46,384Z" fill="#ffc97c" stroke="#ffc97c" stroke-width="1.51"/><path d="M-153,1193L-143,1241L-4,1135Z" fill="#e28f69" stroke="#e28f69" stroke-width="1.51"/><path d="M-167,-8L-42,40L19,-23Z" fill="#ffeca1" stroke="#ffeca1" stroke-width="1.51"/><path d="M-17,1011L-139,1043L-4,1135Z" fill="#f09365" stroke="#f09365" stroke-width="1.51"/><path d="M-71,863L-139,1043L-17,1011Z" fill="#f99765" stroke="#f99765" stroke-width="1.51"/><path d="M-139,1043L-153,1193L-4,1135Z" fill="#ea9169" stroke="#ea9169" stroke-width="1.51"/><path d="M-175,295L-46,384L-44,238Z" fill="#ffd684" stroke="#ffd684" stroke-width="1.51"/><path d="M-119,725L-149,851L-71,863Z" fill="#ffa46c" stroke="#ffa46c" stroke-width="1.51"/><path d="M-149,851L-139,1043L-71,863Z" fill="#fd9c69" stroke="#fd9c69" stroke-width="1.51"/><path d="M-126,418L-134,572L-52,550Z" fill="#ffc57b" stroke="#ffc57b" stroke-width="1.51"/><path d="M-175,295L-126,418L-46,384Z" fill="#ffd182" stroke="#ffd182" stroke-width="1.51"/><path d="M-121,91L-175,295L-44,238Z" fill="#ffe090" stroke="#ffe090" stroke-width="1.51"/><path d="M-167,-8L-121,91L-42,40Z" fill="#ffeca1" stroke="#ffeca1" stroke-width="1.51"/><path d="M-167,-8L-175,295L-121,91Z" fill="#ffe99b" stroke="#ffe99b" stroke-width="1.51"/><path d="M-134,572L-149,851L-119,725Z" fill="#ffae72" stroke="#ffae72" stroke-width="1.51"/><path d="M-175,295L-134,572L-126,418Z" fill="#ffcd82" stroke="#ffcd82" stroke-width="1.51"/><path d="M-175,295L-149,851L-134,572Z" fill="#ffc07b" stroke="#ffc07b" stroke-width="1.51"/><path d="M-149,851L-153,1193L-139,1043Z" fill="#f4976a" stroke="#f4976a" stroke-width="1.51"/><path d="M-175,295L-153,1193L-149,851Z" fill="#ffa871" stroke="#ffa871" stroke-width="1.51"/></svg>