<svg xmlns="http://www.w3.org/2000/svg" viewBox="0 0 38 38"><title>priceРесурс 2price</title><g id="Слой_2" data-name="Слой 2"><g id="Слой_1-2" data-name="Слой 1"><path d="M37,8H31a5,5,0,0,0,.72-1.39A5.09,5.09,0,0,0,32,5a4.83,4.83,0,0,0-1.47-3.54A4.83,4.83,0,0,0,27,0a6,6,0,0,0-3.73,1.27,17.89,17.89,0,0,0-2.52,2.24c-.34.42-.66.84-1,1.25A13.71,13.71,0,0,0,19,6a10,10,0,0,0-.76-1.25c-.3-.41-.62-.83-1-1.25a17.89,17.89,0,0,0-2.52-2.24A6,6,0,0,0,11,0,4.83,4.83,0,0,0,7.48,1.46,4.83,4.83,0,0,0,6,5a5.09,5.09,0,0,0,.26,1.62A5,5,0,0,0,7,8H1a1,1,0,0,0-.73.29A1,1,0,0,0,0,9v6a1,1,0,0,0,.29.72A1,1,0,0,0,1,16H2V35a2.87,2.87,0,0,0,.88,2.13A2.9,2.9,0,0,0,5,38H33a2.9,2.9,0,0,0,2.13-.88A2.87,2.87,0,0,0,36,35V16h1a1,1,0,0,0,1-1V9a1,1,0,0,0-.29-.72A1,1,0,0,0,37,8ZM22.26,4.84a9.66,9.66,0,0,1,2.4-2.09A4.65,4.65,0,0,1,27,2a3,3,0,0,1,3,3,3,3,0,0,1-3,3H20.23A10.46,10.46,0,0,1,21,6.5a11.45,11.45,0,0,1,1.25-1.66ZM22,36H16V10h6V36ZM8,5a3,3,0,0,1,3-3,4.7,4.7,0,0,1,2.31.72,9.55,9.55,0,0,1,2.42,2.09A11.45,11.45,0,0,1,17,6.5,10.46,10.46,0,0,1,17.77,8H11A3,3,0,0,1,8,5ZM2,10H14v4H2V10ZM4,35V16H14V36H5a1,1,0,0,1-1-1Zm30,0a1,1,0,0,1-.3.73A.94.94,0,0,1,33,36H24V16H34V35Zm2-21H24V10H36v4Z" style="fill:#4061ab"/></g></g></svg>