<svg xmlns="http://www.w3.org/2000/svg" viewBox="0 0 973 973"><defs><style>.cls-1{fill:#5e71b3;}</style></defs><title>Ресурс 1price</title><g id="Слой_2" data-name="Слой 2"><g id="Слой_1-2" data-name="Слой 1"><path class="cls-1" d="M947,205H794a124.13,124.13,0,0,0,18.5-35.5A130.47,130.47,0,0,0,819,128q0-53-37.5-90.5T691,0q-53,0-95.5,32.5T531,90q-13,16-24.5,32A342.51,342.51,0,0,0,486,154a234.49,234.49,0,0,0-19.5-32Q455,106,442,90q-22-25-64.5-57.5T282,0q-53,0-90.5,37.5T154,128a130.47,130.47,0,0,0,6.5,41.5A124.13,124.13,0,0,0,179,205H26a25.14,25.14,0,0,0-18.5,7.5A25.14,25.14,0,0,0,0,231V384a25.14,25.14,0,0,0,7.5,18.5A25.14,25.14,0,0,0,26,410H51V896q0,32,22.5,54.5T128,973H845q32,0,54.5-22.5T922,896V410h25a25.62,25.62,0,0,0,26-26V231a25.62,25.62,0,0,0-26-26ZM570,124q30-35,61.5-53.5T691,52q32,0,54.5,22.5T768,128q0,32-22.5,54.5T691,205H518a288.23,288.23,0,0,1,20-38.5A278.35,278.35,0,0,1,570,124Zm-7,798H410V256H563V922ZM205,128q0-31,22.5-53.5T282,52q27,0,59,18.5T403,124a278.35,278.35,0,0,1,32,42.5A288.23,288.23,0,0,1,455,205H282q-32,0-54.5-22.5T205,128ZM51,256H358V359H51V256Zm51,640V410H358V922H128a25.62,25.62,0,0,1-26-26Zm768,0a25.14,25.14,0,0,1-7.5,18.5A24,24,0,0,1,845,922H614V410H870V896Zm52-537H614V256H922V359Z"/></g></g></svg>