<svg xmlns="http://www.w3.org/2000/svg" viewBox="0 0 716 973"><defs><style>.cls-1{fill:#5e71b3;}</style></defs><title>Ресурс 1Ответ</title><g id="Слой_2" data-name="Слой 2"><g id="Слой_1-2" data-name="Слой 1"><path class="cls-1" d="M640,973H76q-31,0-53.5-22.5T0,896V308q0-27,12.5-57T43,202L201,44q19-19,49-31.5T307,0H640q31,0,53.5,22.5T716,77V896q0,32-22.5,54.5T640,973ZM307,52q-16,0-37,8.5T237,80L80,238q-12,12-20.5,33T51,308V896a25.14,25.14,0,0,0,7.5,18.5A24,24,0,0,0,76,922H640a24,24,0,0,0,17.5-7.5A25.14,25.14,0,0,0,665,896V77a24,24,0,0,0-7.5-17.5A24,24,0,0,0,640,52ZM512,410H204q-42,0-72,30t-30,72V768q0,43,30,73t72,30H512q42,0,72-30t30-73V512q0-42-30-72t-72-30Zm51,102V615H460V461h52a51.21,51.21,0,0,1,51,51ZM307,615V461H409V615Zm102,51V820H307V666ZM204,461h52V615H153V512a51.21,51.21,0,0,1,51-51ZM153,768V666H256V820H204a49.1,49.1,0,0,1-36-15q-15-15-15-37Zm359,52H460V666H563V768q0,22-15,37a49.1,49.1,0,0,1-36,15Z"/></g></g></svg>