<svg xmlns="http://www.w3.org/2000/svg" viewBox="0 0 1024 665"><defs><style>.cls-1{fill:#5e71b3;}</style></defs><title>Ресурс 1ship</title><g id="Слой_2" data-name="Слой 2"><g id="Слой_1-2" data-name="Слой 1"><path class="cls-1" d="M1013,328v-1h0L993,225h0l-11-52q-6-30-31-50.5T896,102H691a78.8,78.8,0,0,0-13,1,79.76,79.76,0,0,0-12,3V76q0-31-22.5-53.5T589,0H77Q45,0,22.5,22.5T0,76V486q0,32,22.5,54.5T77,563h77q0,42,30,72t72,30q42,0,72-30t30-72H619a77.92,77.92,0,0,0,27.5,36.5A72.61,72.61,0,0,0,691,614h40a101.16,101.16,0,0,0,88,51q29,0,52.5-14A99.62,99.62,0,0,0,908,614h39q32,0,54.5-22.5T1024,537V435q0-22-3-53.5t-8-53.5Zm-56-21H819V256H947l10,51ZM256,614a51,51,0,1,1,36-87,51,51,0,0,1-36,87Zm89-102a112.07,112.07,0,0,0-37.5-37.5,98.71,98.71,0,0,0-103,0A112.07,112.07,0,0,0,167,512H77a25.62,25.62,0,0,1-26-26V76a24,24,0,0,1,7.5-17.5A25.14,25.14,0,0,1,77,51H589a24,24,0,0,1,17.5,7.5A24,24,0,0,1,614,76V512ZM819,614a51.21,51.21,0,1,1,36-15,49.1,49.1,0,0,1-36,15Zm128-51H922q0-43-30-73t-73-30q-42,0-72,30t-30,73H691a24,24,0,0,1-17.5-7.5A25.14,25.14,0,0,1,666,537V179a25.14,25.14,0,0,1,7.5-18.5A24,24,0,0,1,691,153H896q12,0,23,9t13,21l4,21H794a25.62,25.62,0,0,0-26,26V332a25.62,25.62,0,0,0,26,26H967q1,12,2.5,25.5T972,409H947a24,24,0,0,0-17.5,7.5A25.14,25.14,0,0,0,922,435a25.63,25.63,0,0,0,25,25h26v77a25.62,25.62,0,0,1-26,26Z"/></g></g></svg>