<svg xmlns="http://www.w3.org/2000/svg" viewBox="0 0 58.51 38"><title>shipРесурс 2ship</title><g id="Слой_2" data-name="Слой 2"><g id="Слой_1-2" data-name="Слой 1"><path d="M57.89,18.74v0h0l-1.15-5.83h0l-.63-3A4.8,4.8,0,0,0,54.34,7,4.84,4.84,0,0,0,51.2,5.83H39.49a4.38,4.38,0,0,0-.75.06,3.38,3.38,0,0,0-.68.17V4.34a4.14,4.14,0,0,0-1.29-3A4.23,4.23,0,0,0,33.66,0H4.4A4.21,4.21,0,0,0,1.29,1.29,4.14,4.14,0,0,0,0,4.34V27.77a4.25,4.25,0,0,0,1.29,3.12A4.24,4.24,0,0,0,4.4,32.17H8.8A5.84,5.84,0,0,0,14.63,38a5.86,5.86,0,0,0,5.83-5.83H35.37a4.54,4.54,0,0,0,1.57,2.09,4.19,4.19,0,0,0,2.55.83h2.28a5.71,5.71,0,0,0,2.09,2.11,5.64,5.64,0,0,0,2.94.8,5.81,5.81,0,0,0,3-.8,5.71,5.71,0,0,0,2.09-2.11h2.22a4.39,4.39,0,0,0,4.4-4.4V24.86c0-.84,0-1.86-.17-3.06a24.1,24.1,0,0,0-.45-3.06Zm-3.2-1.2H46.8V14.63h7.31l.58,2.91ZM14.63,35.09a2.92,2.92,0,1,1,2.06-.86,2.82,2.82,0,0,1-2.06.86Zm5.08-5.83a6.38,6.38,0,0,0-2.14-2.15,5.68,5.68,0,0,0-5.88,0,6.5,6.5,0,0,0-2.15,2.15H4.4a1.47,1.47,0,0,1-1.49-1.49V4.34a1.4,1.4,0,0,1,.43-1A1.47,1.47,0,0,1,4.4,2.91H33.66a1.47,1.47,0,0,1,1.43,1.43V29.26ZM46.8,35.09a2.92,2.92,0,1,1,2.06-.86,2.82,2.82,0,0,1-2.06.86Zm7.31-2.92H52.69a5.86,5.86,0,0,0-5.89-5.88A5.86,5.86,0,0,0,41,32.17H39.49a1.33,1.33,0,0,1-1-.43,1.41,1.41,0,0,1-.43-1V10.23a1.43,1.43,0,0,1,.43-1.06,1.37,1.37,0,0,1,1-.43H51.2a2,2,0,0,1,1.31.52,2,2,0,0,1,.75,1.2l.23,1.2H45.37a1.45,1.45,0,0,0-1.48,1.48V19a1.45,1.45,0,0,0,1.48,1.49h9.89c0,.45.08.94.14,1.45s.1,1,.14,1.46H54.11a1.36,1.36,0,0,0-1,.43,1.46,1.46,0,0,0-.42,1.06,1.45,1.45,0,0,0,1.42,1.43H55.6v4.4a1.47,1.47,0,0,1-1.49,1.48Z" style="fill:#4061ab"/></g></g></svg>