<svg xmlns="http://www.w3.org/2000/svg" viewBox="0 0 27.96 38"><title>simРесурс 2sim</title><g id="Слой_2" data-name="Слой 2"><g id="Слой_1-2" data-name="Слой 1"><path d="M25,38H3a2.83,2.83,0,0,1-2.09-.88A2.87,2.87,0,0,1,0,35V12A5.74,5.74,0,0,1,.49,9.8,6,6,0,0,1,1.68,7.89L7.85,1.72A5.62,5.62,0,0,1,9.76.49,5.74,5.74,0,0,1,12,0H25a2.83,2.83,0,0,1,2.09.88A2.87,2.87,0,0,1,28,3V35a2.87,2.87,0,0,1-.88,2.13A2.83,2.83,0,0,1,25,38ZM12,2a4,4,0,0,0-1.45.33,4.37,4.37,0,0,0-1.28.76L3.12,9.29a4.19,4.19,0,0,0-.8,1.29A4,4,0,0,0,2,12V35a1,1,0,0,0,.29.73A1,1,0,0,0,3,36H25a1,1,0,0,0,.69-.29A1,1,0,0,0,26,35V3a1,1,0,0,0-.29-.69A1,1,0,0,0,25,2Zm8,14H8a3.82,3.82,0,0,0-2.81,1.17A3.83,3.83,0,0,0,4,20V30a3.85,3.85,0,0,0,1.18,2.85A3.79,3.79,0,0,0,8,34H20a3.81,3.81,0,0,0,2.81-1.18A3.88,3.88,0,0,0,24,30V20a4,4,0,0,0-4-4Zm2,4v4H18V18h2a2,2,0,0,1,2,2ZM12,24V18h4v6Zm4,2v6H12V26ZM8,18h2v6H6V20a2,2,0,0,1,2-2ZM6,30V26h4v6H8a1.92,1.92,0,0,1-1.41-.58A2,2,0,0,1,6,30Zm14,2H18V26h4v4a2,2,0,0,1-.59,1.45A1.91,1.91,0,0,1,20,32Z" style="fill:#4061ab"/></g></g></svg>