<svg xmlns="http://www.w3.org/2000/svg" xmlns:xlink="http://www.w3.org/1999/xlink" width="57" height="56" aria-hidden="true" class="icon-developers"><defs><ellipse id="a" cx="28.5" cy="28" rx="28" ry="28"/></defs><g fill="none" fill-rule="evenodd"><mask id="b" fill="#fff"><use xlink:href="#a"/></mask><use fill="#A6B0D8" opacity=".3" xlink:href="#a"/><rect width="56" height="61" x="-4" y="9" fill="#A6B0D8" mask="url(#b)" opacity=".5" rx="2"/><path fill="#A6B0D8" d="M8.5 16a1.5 1.5 0 1 1 0 3 1.5 1.5 0 1 1 0-3m0 6a1.5 1.5 0 1 1 0 3 1.5 1.5 0 1 1 0-3m0 6a1.5 1.5 0 1 1 0 3 1.5 1.5 0 1 1 0-3m0 6a1.5 1.5 0 1 1 0 3 1.5 1.5 0 1 1 0-3m0 6a1.5 1.5 0 1 1 0 3 1.5 1.5 0 1 1 0-3" mask="url(#b)"/><rect style="width:16px;transform:translate(-.00654504px,0)" width="16" height="3" x="13" y="16" fill="#A6B0D8" class="icon-developer-code" mask="url(#b)" rx="1.5"/><rect style="width:15px;transform:translate(-.00573658px,0)" width="16" height="3" x="31" y="16" fill="#A6B0D8" class="icon-developer-code" mask="url(#b)" rx="1.5"/><rect style="width:14px;transform:translate(-.00626889px,0)" width="10" height="3" x="16" y="22" fill="#A6B0D8" class="icon-developer-code" mask="url(#b)" rx="1.5"/><rect style="width:14px;transform:translate(-.00685909px,0)" width="10" height="3" x="32" y="22" fill="#A6B0D8" class="icon-developer-code" mask="url(#b)" rx="1.5"/><rect style="width:8px;transform:translate(-.00749676px,0)" width="16" height="3" x="16" y="28" fill="#A6B0D8" class="icon-developer-code" mask="url(#b)" rx="1.5"/><rect style="width:14px;transform:translate(-.00820464px,0)" width="12" height="3" x="26" y="28" fill="#A6B0D8" class="icon-developer-code" mask="url(#b)" rx="1.5"/><rect style="width:12px;transform:translate(-.00718026px,0)" width="21" height="3" x="16" y="34" fill="#A6B0D8" class="icon-developer-code" mask="url(#b)" rx="1.5"/><rect style="width:12px;transform:translate(-.00784831px,0)" width="13" height="3" x="13" y="40" fill="#A6B0D8" class="icon-developer-code" mask="url(#b)" rx="1.5"/></g></svg>