<svg xmlns="http://www.w3.org/2000/svg" xmlns:xlink="http://www.w3.org/1999/xlink" width="56" height="56" aria-hidden="true"><defs><circle id="a" cx="28" cy="28" r="28"/></defs><g fill="none" fill-rule="evenodd"><mask id="b" fill="#fff"><use xlink:href="#a"/></mask><use fill="#8995C7" opacity=".3" xlink:href="#a"/><path fill="#8995C7" d="M22.1 23a7.2 7.2 0 0 1 0-10c2.7-2.7 7.1-2.7 9.8 0a7.2 7.2 0 0 1 0 10 6.8 6.8 0 0 1-9.8 0m16.7 5l-3.9-4c2.8-4 2.5-9.5-1-13-3.8-4-10-4-13.8 0-3.9 3.8-3.9 10.2 0 14.2 3.5 3.5 8.9 3.9 12.7 1l3.9 4c.6.5 1.5.5 2 0 .7-.7.7-1.6 0-2.2" mask="url(#b)"/><path fill="#8995C7" d="M8 62.5l19.8-6.2L28 20 8.2 25.7" mask="url(#b)" opacity=".3"/><path fill="#8995C7" d="M47.6 62.5L28 56.3V20l19.8 5.7" mask="url(#b)" opacity=".4"/><path fill="#8995C7" d="M8.2 25.6L28 31.8v28.7L8.2 54.3M47.8 25.6L28 31.8V58l20-6.5" mask="url(#b)" opacity=".5"/><path fill="#CFD4E7" d="M47.8 25.6L28 31.8l8.3 7.3L56 33" mask="url(#b)"/><path fill="#BAC1DD" d="M8.3 25.6l19.9 6.2-8.3 7.3L.1 33" mask="url(#b)"/></g></svg>