<svg xmlns="http://www.w3.org/2000/svg" width="260" height="191"><defs><linearGradient id="a" x1="100%" x2="0%" y1="50%" y2="50%"><stop offset="0%" stop-color="#00AEFF"/><stop offset="100%" stop-color="#3369E6"/></linearGradient><linearGradient id="b" x1="100%" x2="-2.1%" y1="50%" y2="50%"><stop offset="0%" stop-color="#00AEFF"/><stop offset="100%" stop-color="#3369E6"/></linearGradient></defs><g fill="none" fill-rule="evenodd"><path fill="url(#a)" d="M0 96h78.4a16 16 0 1 1 0 32H0V96z" opacity=".4" transform="rotate(-180 129.7 95.4)"/><path fill="url(#a)" d="M0 158h25.8a16 16 0 1 1 0 32H0v-32z" opacity=".6" transform="rotate(-180 129.7 95.4)"/><path fill="url(#b)" d="M0 64h147.3a16 16 0 1 1 0 32H0V64z" opacity=".9" transform="rotate(-180 129.7 95.4)"/><path fill="url(#a)" d="M0 32h242.8a16 16 0 1 1 0 32H0V32z" opacity=".6" transform="rotate(-180 129.7 95.4)"/><path fill="url(#a)" d="M0 0h189a16 16 0 1 1 0 32H0V0z" opacity=".2" transform="rotate(-180 129.7 95.4)"/><path fill="url(#a)" d="M0 0h147a16 16 0 1 1 0 32H0V0z" opacity=".4" transform="rotate(-180 129.7 95.4)"/></g></svg>