<svg xmlns="http://www.w3.org/2000/svg" width="293" height="185"><defs><linearGradient id="a" x1="100%" x2="0%" y1="50%" y2="50%"><stop offset="0%" stop-color="#00AEFF"/><stop offset="100%" stop-color="#3369E6"/></linearGradient><linearGradient id="b" x1="1%" y1="50%" y2="50%"><stop offset="0%" stop-color="#00AEFF"/><stop offset="100%" stop-color="#3369E6"/></linearGradient><linearGradient id="c" x1="100%" x2="0%" y1="100%" y2="100%"><stop offset="0%" stop-color="#00AEFF"/><stop offset="100%" stop-color="#3369E6"/></linearGradient></defs><g fill="none" fill-rule="evenodd"><path fill="url(#a)" d="M0 153h277a16 16 0 0 1 0 32H0v-32z" opacity=".9"/><path fill="url(#b)" d="M0 153h120.2a16 16 0 1 1 0 32H0v-32z" opacity=".9"/><path fill="url(#a)" d="M0 89h31.2a16 16 0 0 1 0 32H0V89z" opacity=".9"/><path fill="url(#a)" d="M0 121h78.4a16 16 0 1 1 0 32H0v-32z" opacity=".4"/><path fill="url(#a)" d="M0 121h199a16 16 0 0 1 0 32H0v-32z" opacity=".4"/><path fill="url(#c)" d="M0 32h25.8a16 16 0 1 1 0 32H0V32z" opacity=".2"/><path fill="url(#c)" d="M0 0h65a16 16 0 0 1 0 32H0V0z" opacity=".5"/></g></svg>