<svg xmlns="http://www.w3.org/2000/svg" xmlns:xlink="http://www.w3.org/1999/xlink" width="1597" height="656"><defs><linearGradient id="c" x1="0%" y1="0%" y2="100%"><stop offset="0%" stop-color="#3369E7"/><stop offset="100%" stop-color="#843CF6"/></linearGradient><path id="a" d="M0 0h1600v640H0V0z"/><filter id="b" width="104.2%" height="110.6%" x="-1.6%" y="-4.7%" filterUnits="objectBoundingBox"><feOffset dx="8" dy="4" in="SourceAlpha" result="shadowOffsetOuter1"/><feGaussianBlur in="shadowOffsetOuter1" result="shadowBlurOuter1" stdDeviation="10"/><feColorMatrix in="shadowBlurOuter1" values="0 0 0 0 0.537254902 0 0 0 0 0.584313725 0 0 0 0 0.780392157 0 0 0 0.4 0"/></filter><linearGradient id="d" x1="14.8%" x2="94.5%" y1="50%" y2="50%"><stop offset="0%" stop-color="#FFF" stop-opacity="0"/><stop offset="100%" stop-color="#FFF"/></linearGradient></defs><g fill="none" fill-rule="evenodd" transform="translate(0 16)"><mask id="e" fill="#fff"><use xlink:href="#a"/></mask><g transform="matrix(-1 0 0 1 1600 0)"><use fill="#000" filter="url(#b)" xlink:href="#a"/><use fill="url(#c)" xlink:href="#a"/></g><path fill="url(#d)" d="M0 440h1529a40 40 0 1 1 0 80H0v-80z" mask="url(#e)" opacity=".2" style="mix-blend-mode:overlay"/><path fill="url(#d)" d="M0 400h1123a40 40 0 0 1 0 80H0v-80zm0-80h1626a40 40 0 0 1 0 80H0v-80zm0 160h1371a40 40 0 1 1 0 80H0v-80z" mask="url(#e)" opacity=".2" style="mix-blend-mode:overlay"/><path fill="url(#d)" d="M-385 520h960a40 40 0 0 1 0 80h-960v-80zM0 600h1683a45 45 0 0 1 0 90H0v-90z" mask="url(#e)" opacity=".2" style="mix-blend-mode:overlay"/><path fill="url(#d)" d="M0 520h960a40 40 0 0 1 0 80H0v-80z" mask="url(#e)" opacity=".2" style="mix-blend-mode:overlay"/></g></svg>