<svg width="226" height="256" viewBox="0 0 226 256" xmlns="http://www.w3.org/2000/svg"><title>icon-global</title><desc>Created with Sketch.</desc><g stroke-width="6" stroke-linecap="round" fill="none" fill-rule="evenodd"><path d="M202.527 108.618c3.99 21.864 1.078 44.74-8.737 65.125M130.254 26.668c15.714 4.96 30.5 13.668 42.957 26.125 12.38 12.38 21.056 27.057 26.03 42.66M52.267 32.21c18.82-9.06 39.765-12.237 60.075-9.53M127.302 23.725c13.918-2.722 28.275-2.635 42.164.26M52.21 173.743C33.215 134.29 40.075 85.51 72.79 52.793c9.787-9.787 21.01-17.26 32.994-22.42M70.53 81.11c-8.51-15.373-14.726-31.676-18.65-48.407M123.68 141.803c-7.392-5.494-14.475-11.594-21.18-18.3-4.58-4.58-8.876-9.333-12.89-14.242M193.304 174.123c-22.275-5.222-43.79-14.508-63.364-27.86M90.99 95.05c3.612-4.313 7.444-8.505 11.498-12.56 20.246-20.244 43.923-34.966 69.16-44.163M51.87 173.296c3.864-16.486 9.955-32.555 18.272-47.73M105.13 153.182c-16.54 9.694-34.234 16.675-52.434 20.94M187.398 55.072c-9.214 24.963-23.847 48.38-43.897 68.43-6.582 6.586-13.53 12.585-20.773 18M197.026 116.773c-5.168 13.272-13.11 25.712-23.827 36.43-32.718 32.715-81.5 39.575-120.95 20.578M199.407 46.517c5.408 17.293 6.282 35.7 2.622 53.352M52.603 31.848c33.315 7.79 64.937 24.67 90.91 50.644 25.945 25.945 42.818 57.527 50.618 90.804M193.752 173.78c-39.453 18.998-88.234 12.138-120.95-20.578-32.717-32.716-39.576-81.497-20.58-120.95" stroke="#F2F9FB"/><path d="M210.596 54.694c20.984 38.008 15.358 86.778-16.88 119.014-39.05 39.053-102.368 39.053-141.42 0-39.053-39.052-39.053-102.37 0-141.42C81.328 3.254 123.77-4.195 159.683 9.938M193.46 173.96l27.415 27.415M26.875 7.375L52 32.5M123 223v14" stroke="#182359"/><path d="M76 253v-2c0-7.7 6.3-14 14-14h66c7.7 0 14 6.3 14 14v2H76z" stroke="#182359"/><path d="M174.894 42.57l14.23 14.23 14.232-14.23c7.858-7.86 7.858-20.605 0-28.463-7.86-7.86-20.602-7.86-28.462 0-7.858 7.858-7.858 20.6 0 28.46zM192.18 28.338c0 1.687-1.368 3.055-3.055 3.055s-3.054-1.368-3.054-3.055 1.37-3.055 3.056-3.055 3.055 1.368 3.055 3.055z" stroke="#2DDE98"/><path d="M109.1 44.9l9.9 9.9 9.9-9.9c5.466-5.468 5.466-14.332 0-19.8-5.468-5.466-14.333-5.466-19.8 0-5.467 5.467-5.467 14.332 0 19.8zM120 35c0 .552-.448 1-1 1s-1-.448-1-1 .448-1 1-1 1 .448 1 1zM109.1 164.9l9.9 9.898 9.9-9.9c5.466-5.465 5.466-14.33 0-19.797-5.468-5.465-14.333-5.465-19.8 0-5.467 5.47-5.467 14.334 0 19.8zM120 155c0 .552-.448 1-1 1s-1-.448-1-1 .448-1 1-1 1 .448 1 1zM179.1 114.9l9.9 9.898 9.9-9.898c5.466-5.468 5.466-14.333 0-19.8-5.468-5.466-14.333-5.466-19.8 0-5.466 5.468-5.466 14.333 0 19.8zM190 105c0 .552-.448 1-1 1s-1-.448-1-1 .448-1 1-1 1 .448 1 1zM58.675 114.1l13.7 13.7 13.7-13.7c7.568-7.57 7.568-19.835 0-27.402-7.566-7.567-19.833-7.567-27.4 0s-7.567 19.834 0 27.4zM75.49 100.398c0 1.72-1.395 3.114-3.115 3.114-1.72 0-3.114-1.394-3.114-3.114s1.396-3.114 3.116-3.114c1.72 0 3.114 1.394 3.114 3.114z" stroke="#182359" stroke-linejoin="round"/><path d="M207.602 188.102c-46.883 46.613-122.676 46.53-169.455-.25-46.78-46.78-46.863-122.572-.25-169.454" stroke="#182359"/></g></svg>