<svg class="icon-developers" width="57" height="56" viewBox="0 0 57 56" xmlns="http://www.w3.org/2000/svg" xmlns:xlink="http://www.w3.org/1999/xlink" aria-hidden="true"> <defs> <ellipse id="aaa" cx="28.5" cy="28" rx="28" ry="28"></ellipse> </defs> <g fill="none" fill-rule="evenodd"> <mask id="bbb" fill="#fff"> <use xlink:href="#aaa"></use> </mask> <use fill="#A6B0D8" opacity=".3" xlink:href="#aaa"></use> <rect fill="#A6B0D8" opacity=".5" mask="url(#bbb)" x="-4" y="9" width="56" height="61" rx="2"></rect> <path d="M8.5 16c.828 0 1.5.666 1.5 1.5 0 .828-.666 1.5-1.5 1.5-.828 0-1.5-.666-1.5-1.5 0-.828.666-1.5 1.5-1.5M8.5 22c.828 0 1.5.666 1.5 1.5 0 .828-.666 1.5-1.5 1.5-.828 0-1.5-.666-1.5-1.5 0-.828.666-1.5 1.5-1.5M8.5 28c.828 0 1.5.666 1.5 1.5 0 .828-.666 1.5-1.5 1.5-.828 0-1.5-.666-1.5-1.5 0-.828.666-1.5 1.5-1.5M8.5 34c.828 0 1.5.666 1.5 1.5 0 .828-.666 1.5-1.5 1.5-.828 0-1.5-.666-1.5-1.5 0-.828.666-1.5 1.5-1.5M8.5 40c.828 0 1.5.666 1.5 1.5 0 .828-.666 1.5-1.5 1.5-.828 0-1.5-.666-1.5-1.5 0-.828.666-1.5 1.5-1.5" fill="#A6B0D8" mask="url(#bbb)"></path> <rect class="icon-developer-code" fill="#A6B0D8" mask="url(#bbb)" x="13" y="16" width="11" height="3" rx="1.5" style="opacity: 0.999928; transform: translate(0.99964px, 0px);"></rect> <rect class="icon-developer-code" fill="#A6B0D8" mask="url(#bbb)" x="26" y="16" width="14" height="3" rx="1.5" style="opacity: 0.999232; transform: translate(0.996159px, 0px);"></rect> <rect class="icon-developer-code" fill="#A6B0D8" mask="url(#bbb)" x="16" y="22" width="10" height="3" rx="1.5" style="opacity: 0.999785; transform: translate(0.998926px, 0px);"></rect> <rect class="icon-developer-code" fill="#A6B0D8" mask="url(#bbb)" x="28" y="22" width="12" height="3" rx="1.5" style="opacity: 0.999997; transform: translate(0.999984px, 0px);"></rect> <rect class="icon-developer-code" fill="#A6B0D8" mask="url(#bbb)" x="16" y="28" width="8" height="3" rx="1.5" style="opacity: 0.999564; transform: translate(0.99782px, 0px);"></rect> <rect class="icon-developer-code" fill="#A6B0D8" mask="url(#bbb)" x="26" y="28" width="10" height="3" rx="1.5" style="opacity: 0.999938; transform: translate(0.999691px, 0px);"></rect> <rect class="icon-developer-code" fill="#A6B0D8" mask="url(#bbb)" x="16" y="34" width="13" height="3" rx="1.5" style="opacity: 0.999266; transform: translate(0.996332px, 0px);"></rect> <rect class="icon-developer-code" fill="#A6B0D8" mask="url(#bbb)" x="13" y="40" width="12" height="3" rx="1.5" style="opacity: 0.999797; transform: translate(0.998985px, 0px);"></rect> </g> </svg>