<svg xmlns="http://www.w3.org/2000/svg" viewBox="0 0 54.25 14.1"><defs><style>.cls-1{fill:#f7931e;}</style></defs><title>Ресурс 11Ответ</title><g id="Слой_2" data-name="Слой 2"><g id="Слой_1-2" data-name="Слой 1"><path class="cls-1" d="M11.64,7a8,8,0,0,1-1.49,5.28,5.34,5.34,0,0,1-4.33,1.76,5.2,5.2,0,0,1-4.41-1.85A8.39,8.39,0,0,1,0,7a8.4,8.4,0,0,1,1.41-5.2A5.19,5.19,0,0,1,5.82,0a5.19,5.19,0,0,1,4.42,1.84A8.46,8.46,0,0,1,11.64,7ZM8.8,7a6.91,6.91,0,0,0-.68-3.5,2.49,2.49,0,0,0-2.3-1.1,2.49,2.49,0,0,0-2.3,1.1A6.91,6.91,0,0,0,2.84,7a6.79,6.79,0,0,0,.69,3.5,2.5,2.5,0,0,0,2.29,1.1,2.49,2.49,0,0,0,2.3-1.1A6.91,6.91,0,0,0,8.8,7Z"/><path class="cls-1" d="M22.12,5.38H18.64V13.8h-2.5V5.38h-3.5V3.55h9.48Z"/><path class="cls-1" d="M32.65,10.74A2.61,2.61,0,0,1,31.51,13a6.05,6.05,0,0,1-3.46.8H23.56V3.55h4.16A6.82,6.82,0,0,1,31,4.12a2,2,0,0,1,1,1.88,2,2,0,0,1-.5,1.42,3.44,3.44,0,0,1-1.18.82A3.68,3.68,0,0,1,32,9.05,2.15,2.15,0,0,1,32.65,10.74ZM29.42,6.4a.83.83,0,0,0-.49-.84,4,4,0,0,0-1.49-.22H26.06v2.2h1.49A2.82,2.82,0,0,0,29,7.27,1,1,0,0,0,29.42,6.4Zm.63,4.22a1,1,0,0,0-.54-1,3.92,3.92,0,0,0-1.67-.27H26.06V12h1.47a5.16,5.16,0,0,0,1.83-.27A1.08,1.08,0,0,0,30.05,10.62Z"/><path class="cls-1" d="M36.94,9.34a2.93,2.93,0,0,0,.67,2,2.53,2.53,0,0,0,1.87.59,4.32,4.32,0,0,0,1.31-.18,2.15,2.15,0,0,0,1-.71l1.87,1.33a3.73,3.73,0,0,1-1.59,1.33,6.59,6.59,0,0,1-2.68.44,4.93,4.93,0,0,1-3.78-1.33,5.67,5.67,0,0,1-1.24-4q0-5.5,4.92-5.5A4.29,4.29,0,0,1,42.6,4.5a5.07,5.07,0,0,1,1.15,3.6V9.34ZM41.25,7.6q0-2.34-2-2.34a2.33,2.33,0,0,0-1.1.23,1.7,1.7,0,0,0-.69.69A4.11,4.11,0,0,0,37,7.6Z"/><path class="cls-1" d="M54.25,5.38H50.77V13.8h-2.5V5.38h-3.5V3.55h9.48Z"/></g></g></svg>