<svg xmlns="http://www.w3.org/2000/svg" viewBox="0 0 54.3 14.1"><defs><style>.cls-1{fill:#f7931e}</style></defs><g id="Слой_2" data-name="Слой 2"><g id="Слой_1-2" data-name="Слой 1"><path d="M11.6 7a8 8 0 0 1-1.4 5.3A5.3 5.3 0 0 1 5.8 14a5.2 5.2 0 0 1-4.4-1.8A8.4 8.4 0 0 1 0 7a8.4 8.4 0 0 1 1.4-5.2A5.2 5.2 0 0 1 5.8 0a5.2 5.2 0 0 1 4.4 1.8A8.5 8.5 0 0 1 11.6 7zM8.8 7a7 7 0 0 0-.7-3.5 2.5 2.5 0 0 0-2.3-1.1 2.5 2.5 0 0 0-2.3 1.1A7 7 0 0 0 2.8 7a6.8 6.8 0 0 0 .7 3.5 2.5 2.5 0 0 0 2.3 1.1 2.5 2.5 0 0 0 2.3-1.1A7 7 0 0 0 8.8 7zM22.1 5.4h-3.5v8.4h-2.5V5.4h-3.5V3.5h9.5zM32.6 10.7a2.6 2.6 0 0 1-1 2.3 6 6 0 0 1-3.5.8h-4.5V3.5h4.1a6.8 6.8 0 0 1 3.3.6A2 2 0 0 1 32 6a2 2 0 0 1-.5 1.4 3.4 3.4 0 0 1-1.2.8 3.6 3.6 0 0 1 1.7.9 2.1 2.1 0 0 1 .6 1.6zm-3.2-4.3a.8.8 0 0 0-.5-.8 4 4 0 0 0-1.5-.3h-1.3v2.2h1.4a2.8 2.8 0 0 0 1.5-.2 1 1 0 0 0 .4-.9zm.7 4.2a1 1 0 0 0-.6-1 4 4 0 0 0-1.7-.2h-1.7V12h1.4a5.2 5.2 0 0 0 1.9-.3 1 1 0 0 0 .7-1zM37 9.3a3 3 0 0 0 .6 2 2.5 2.5 0 0 0 1.9.6 4.3 4.3 0 0 0 1.3-.2 2.1 2.1 0 0 0 1-.7l1.9 1.4a3.7 3.7 0 0 1-1.6 1.3 6.6 6.6 0 0 1-2.7.4 5 5 0 0 1-3.8-1.3 5.7 5.7 0 0 1-1.2-4q0-5.5 4.9-5.5a4.3 4.3 0 0 1 3.3 1.2 5 5 0 0 1 1.1 3.6v1.2zm4.3-1.7q0-2.3-2-2.3a2.3 2.3 0 0 0-1.1.2 1.7 1.7 0 0 0-.7.7 4.1 4.1 0 0 0-.5 1.4zM54.3 5.4h-3.5v8.4h-2.5V5.4h-3.5V3.5h9.5z" class="cls-1"/></g></g></svg>