<svg xmlns="http://www.w3.org/2000/svg" viewBox="0 0 67.41 17.23"><defs><style>.cls-1{fill:blue;}</style></defs><title>Ресурс 4вопрос1</title><g id="Слой_2" data-name="Слой 2"><g id="Слой_1-2" data-name="Слой 1"><path class="cls-1" d="M10.27,9.52a3.28,3.28,0,0,1-1.39,3A6.73,6.73,0,0,1,5,13.41H0V0H4.74A6.85,6.85,0,0,1,8.43.75,2.66,2.66,0,0,1,9.54,3.13a3.19,3.19,0,0,1-.6,2,3.07,3.07,0,0,1-1.9,1A4,4,0,0,1,9.5,7.26,3.21,3.21,0,0,1,10.27,9.52ZM6.78,3.73a1.1,1.1,0,0,0-.56-1.06,3.88,3.88,0,0,0-1.74-.3H2.73V5.25H4.4a3.61,3.61,0,0,0,1.79-.34A1.23,1.23,0,0,0,6.78,3.73Zm.7,5.55A1.36,1.36,0,0,0,6.87,8a4.8,4.8,0,0,0-2.29-.38H2.73V11H4.12a10.48,10.48,0,0,0,2.2-.16,1.53,1.53,0,0,0,.88-.52A1.66,1.66,0,0,0,7.48,9.28Z"/><path class="cls-1" d="M21.76,8.35a6,6,0,0,1-1.17,4,4.56,4.56,0,0,1-3.7,1.41Q12,13.71,12,8.35a6.08,6.08,0,0,1,1.17-4A4.57,4.57,0,0,1,16.89,3a4.56,4.56,0,0,1,3.7,1.41A6.08,6.08,0,0,1,21.76,8.35Zm-2.59,0a4.46,4.46,0,0,0-.52-2.45,2,2,0,0,0-1.76-.77,2,2,0,0,0-1.76.79,4.37,4.37,0,0,0-.54,2.43,4.24,4.24,0,0,0,.54,2.4,2,2,0,0,0,1.76.77,2,2,0,0,0,1.75-.76A4.32,4.32,0,0,0,19.17,8.35Z"/><path class="cls-1" d="M30.52,13.41V5.1h-4.1v8.31h-2.5V3.25H33V13.41Z"/><path class="cls-1" d="M45.18,8.25a7.81,7.81,0,0,1-.49,2.89,4.14,4.14,0,0,1-1.42,1.91,3.65,3.65,0,0,1-2.2.66,4.14,4.14,0,0,1-2.87-1.06v4.58H35.7v-14H38v1a6.19,6.19,0,0,1,1.47-.94A4.27,4.27,0,0,1,41.24,3a3.44,3.44,0,0,1,2.93,1.36A6.57,6.57,0,0,1,45.18,8.25Zm-2.58,0A4.4,4.4,0,0,0,42.09,6a1.69,1.69,0,0,0-1.53-.83,3,3,0,0,0-1.25.29,4.12,4.12,0,0,0-1.11.7v4.45a3.76,3.76,0,0,0,1,.63,2.72,2.72,0,0,0,1.21.28A1.86,1.86,0,0,0,42,10.62,4.12,4.12,0,0,0,42.6,8.29Z"/><path class="cls-1" d="M56.72,8.35a6,6,0,0,1-1.17,4,4.55,4.55,0,0,1-3.69,1.41Q47,13.71,47,8.35a6,6,0,0,1,1.18-4A4.54,4.54,0,0,1,51.86,3a4.55,4.55,0,0,1,3.69,1.41A6.08,6.08,0,0,1,56.72,8.35Zm-2.59,0a4.46,4.46,0,0,0-.52-2.45,2,2,0,0,0-1.75-.77,2,2,0,0,0-1.77.79,4.37,4.37,0,0,0-.54,2.43,4.24,4.24,0,0,0,.54,2.4,2.4,2.4,0,0,0,3.51,0A4.32,4.32,0,0,0,54.13,8.35Z"/><path class="cls-1" d="M67.41,12a3.61,3.61,0,0,1-1.53,1.31,5.59,5.59,0,0,1-2.4.45,4.88,4.88,0,0,1-3.72-1.34,5.62,5.62,0,0,1-1.26-4,6,6,0,0,1,1.22-4A4.53,4.53,0,0,1,63.38,3a6.09,6.09,0,0,1,2.33.43A3.22,3.22,0,0,1,67.27,4.7L65.41,6a2.15,2.15,0,0,0-.8-.68,2.77,2.77,0,0,0-1.17-.22,2.06,2.06,0,0,0-1.82.79,4.33,4.33,0,0,0-.54,2.43,4.14,4.14,0,0,0,.55,2.41,2.25,2.25,0,0,0,1.91.76,3.23,3.23,0,0,0,1.06-.17,2,2,0,0,0,.92-.72Z"/></g></g></svg>