<svg xmlns="http://www.w3.org/2000/svg" viewBox="0 0 67.96 17.37"><defs><style>.cls-1{fill:#3f62e9;}</style></defs><title>Ресурс 9Вопрос</title><g id="Слой_2" data-name="Слой 2"><g id="Слой_1-2" data-name="Слой 1"><path class="cls-1" d="M10.35,9.6a3.32,3.32,0,0,1-1.39,3,6.89,6.89,0,0,1-3.88.95H0V0H4.78A6.85,6.85,0,0,1,8.5.76,2.69,2.69,0,0,1,9.62,3.15,3.25,3.25,0,0,1,9,5.2a3.12,3.12,0,0,1-1.91,1A4.06,4.06,0,0,1,9.58,7.31,3.29,3.29,0,0,1,10.35,9.6ZM6.84,3.76a1.11,1.11,0,0,0-.57-1.07,3.92,3.92,0,0,0-1.76-.3H2.75v2.9H4.43A3.74,3.74,0,0,0,6.25,5,1.26,1.26,0,0,0,6.84,3.76Zm.7,5.6a1.39,1.39,0,0,0-.62-1.29,4.85,4.85,0,0,0-2.3-.37H2.75v3.37h1.4a10.85,10.85,0,0,0,2.22-.15,1.54,1.54,0,0,0,.89-.53A1.66,1.66,0,0,0,7.54,9.36Z"/><path class="cls-1" d="M21.93,8.42a6.06,6.06,0,0,1-1.18,4A4.6,4.6,0,0,1,17,13.82q-4.92,0-4.92-5.4a6.12,6.12,0,0,1,1.18-4A4.59,4.59,0,0,1,17,3,4.56,4.56,0,0,1,20.75,4.4,6.12,6.12,0,0,1,21.93,8.42Zm-2.6,0A4.51,4.51,0,0,0,18.8,6,2,2,0,0,0,17,5.18,2,2,0,0,0,15.25,6a4.43,4.43,0,0,0-.54,2.45,4.25,4.25,0,0,0,.54,2.41,2,2,0,0,0,1.78.78,2,2,0,0,0,1.76-.77A4.27,4.27,0,0,0,19.33,8.42Z"/><path class="cls-1" d="M30.77,13.52V5.14H26.63v8.38H24.11V3.27h9.18V13.52Z"/><path class="cls-1" d="M45.55,8.32a7.92,7.92,0,0,1-.5,2.91,4.13,4.13,0,0,1-1.43,1.92,3.64,3.64,0,0,1-2.21.67,4.21,4.21,0,0,1-2.9-1.07v4.62H36V3.27h2.32v1a5.81,5.81,0,0,1,1.48-1A4.19,4.19,0,0,1,41.57,3a3.44,3.44,0,0,1,3,1.37A6.55,6.55,0,0,1,45.55,8.32Zm-2.6,0A4.37,4.37,0,0,0,42.43,6a1.68,1.68,0,0,0-1.54-.83,3.18,3.18,0,0,0-1.27.28,4.4,4.4,0,0,0-1.11.71v4.48a3.45,3.45,0,0,0,1,.64,2.75,2.75,0,0,0,1.21.28,1.88,1.88,0,0,0,1.64-.88A4.11,4.11,0,0,0,43,8.36Z"/><path class="cls-1" d="M57.18,8.42a6.11,6.11,0,0,1-1.18,4,4.6,4.6,0,0,1-3.72,1.42q-4.94,0-4.93-5.4a6.12,6.12,0,0,1,1.19-4A4.57,4.57,0,0,1,52.28,3,4.56,4.56,0,0,1,56,4.4,6.17,6.17,0,0,1,57.18,8.42Zm-2.61,0A4.51,4.51,0,0,0,54,6a2,2,0,0,0-1.76-.77A2,2,0,0,0,50.5,6,4.33,4.33,0,0,0,50,8.42a4.25,4.25,0,0,0,.54,2.41,2,2,0,0,0,1.79.78A2,2,0,0,0,54,10.84,4.27,4.27,0,0,0,54.57,8.42Z"/><path class="cls-1" d="M68,12.05a3.79,3.79,0,0,1-1.54,1.32,5.73,5.73,0,0,1-2.43.45,4.92,4.92,0,0,1-3.75-1.35,5.71,5.71,0,0,1-1.27-4,6,6,0,0,1,1.24-4A4.59,4.59,0,0,1,63.9,3a6,6,0,0,1,2.35.43,3.19,3.19,0,0,1,1.56,1.33L65.94,6.07a2.19,2.19,0,0,0-.8-.67A2.7,2.7,0,0,0,64,5.18,2.07,2.07,0,0,0,62.12,6a4.29,4.29,0,0,0-.55,2.45,4.17,4.17,0,0,0,.56,2.42,2.22,2.22,0,0,0,1.92.77,3.4,3.4,0,0,0,1.08-.16,2.12,2.12,0,0,0,.92-.74Z"/></g></g></svg>